<svg xmlns="http://www.w3.org/2000/svg" xmlns:xlink="http://www.w3.org/1999/xlink" version="1.1" width="1000" height="1000" viewBox="0 0 1000 1000" xml:space="preserve">
<desc>Created with Fabric.js 3.5.0</desc>
<defs>
</defs>
<rect x="0" y="0" width="100%" height="100%" fill="rgba(255,255,255,0)"/>
<g transform="matrix(0.974 0 0 0.974 499.9878 740.1967)" id="616320">
<g style="" vector-effect="non-scaling-stroke">
		<g transform="matrix(1.3333 0 0 1.3333 -11.3168 2.9381)">
<path style="stroke: none; stroke-width: 1; stroke-dasharray: none; stroke-linecap: butt; stroke-dashoffset: 0; stroke-linejoin: miter; stroke-miterlimit: 4; is-custom-font: none; font-file-url: none; fill: rgb(0,0,0); fill-rule: nonzero; opacity: 1;" transform=" translate(-341.5133, -352.2042)" d="m 334.05 342.76 c 3.0781 -0.40625 5.2461 -3.2305 4.8438 -6.3086 c -0.42969 -3.0664 -3.2344 -5.2266 -6.3125 -4.8555 c -17.008 2.2539 -27.988 10.227 -27.988 20.344 c 0 11.922 15.859 20.914 36.891 20.914 c 21.035 -0.003906 36.949 -8.9922 36.949 -20.914 c 0 -5.4688 -3.2812 -10.512 -9.375 -14.219 c -2.6328 -1.4961 -5.9766 -0.64453 -7.5703 1.9297 c -1.5938 2.5742 -0.86719 5.9492 1.6445 7.6406 c 2.5391 1.5742 4.0469 3.2812 4.0469 4.6797 c 0 3.2812 -9.0469 9.6484 -25.637 9.6484 c -16.594 0 -25.637 -6.375 -25.637 -9.6484 c -0.058594 -2.8008 6.4297 -7.668 18.145 -9.2109 z" stroke-linecap="round"/>
</g>
		<g transform="matrix(1.3333 0 0 1.3333 -11.3373 4.5919)">
<path style="stroke: none; stroke-width: 1; stroke-dasharray: none; stroke-linecap: butt; stroke-dashoffset: 0; stroke-linejoin: miter; stroke-miterlimit: 4; is-custom-font: none; font-file-url: none; fill: rgb(0,0,0); fill-rule: nonzero; opacity: 1;" transform=" translate(-341.4995, -353.4451)" d="m 304.71 309.25 c -37.438 6.9453 -60.691 23.309 -60.691 42.656 c 0 25.77 42.809 45.938 97.477 45.938 c 54.664 0 97.484 -20.18 97.484 -45.938 c 0 -19.48 -23.43 -35.863 -61.129 -42.766 c -3.0586 -0.5625 -5.9922 1.4609 -6.5508 4.5195 c -0.5625 3.0547 1.4609 5.9883 4.5156 6.5508 c 30.559 5.6016 51.898 18.594 51.898 31.719 c 0 16.406 -35.406 34.695 -86.219 34.695 c -50.816 0 -86.219 -18.289 -86.219 -34.695 c 0 -12.984 21.176 -25.988 51.492 -31.621 c 1.5117 -0.22266 2.8672 -1.0547 3.7578 -2.3008 c 0.88672 -1.2422 1.2305 -2.7969 0.95312 -4.3008 c -0.28125 -1.5039 -1.1602 -2.8281 -2.4336 -3.6719 c -1.2773 -0.84375 -2.8438 -1.1289 -4.3359 -0.79688 z" stroke-linecap="round"/>
</g>
		<g transform="matrix(1.3333 0 0 1.3333 -67.9734 -1.231)">
<path style="stroke: none; stroke-width: 1; stroke-dasharray: none; stroke-linecap: butt; stroke-dashoffset: 0; stroke-linejoin: miter; stroke-miterlimit: 4; is-custom-font: none; font-file-url: none; fill: rgb(0,0,0); fill-rule: nonzero; opacity: 1;" transform=" translate(-299.0226, -349.0786)" d="m 284.82 410.47 c -48.652 -10.434 -81.387 -33.961 -81.387 -58.535 c 0 -34.871 63.25 -64.281 138.05 -64.281 c 19.52 -0.078125 38.992 1.9609 58.078 6.082 c 2.8633 0.32422 5.5117 -1.5625 6.1367 -4.375 c 0.625 -2.8164 -0.97656 -5.6484 -3.7109 -6.5625 c -19.879 -4.2969 -40.168 -6.4258 -60.504 -6.3438 c -83.703 0 -149.27 33.195 -149.27 75.578 c 0 30.492 35.426 57.793 90.246 69.551 c 0.38672 0.078124 0.78516 0.11719 1.1797 0.12109 c 2.8711 -0.019531 5.2656 -2.1914 5.5664 -5.043 c 0.29688 -2.8555 -1.5938 -5.4766 -4.3945 -6.0938 z" stroke-linecap="round"/>
</g>
		<g transform="matrix(1.3333 0 0 1.3333 16.8497 -281.0618)">
<path style="stroke: none; stroke-width: 1; stroke-dasharray: none; stroke-linecap: butt; stroke-dashoffset: 0; stroke-linejoin: miter; stroke-miterlimit: 4; is-custom-font: none; font-file-url: none; fill: rgb(0,0,0); fill-rule: nonzero; opacity: 1;" transform=" translate(-362.638, -139.2041)" d="m 347.7 136.91 c 2.6445 -1.6367 3.4648 -5.1094 1.8281 -7.7578 c -1.6367 -2.6445 -5.1094 -3.4609 -7.7578 -1.8242 c -4.8789 3.0312 -7.5703 7.1875 -7.5703 11.703 c 0 9.7344 11.977 16.801 28.438 16.801 s 28.438 -7.0664 28.438 -16.801 c 0 -8.1914 -8.5547 -14.613 -21.777 -16.406 h 0.003907 c -3.082 -0.40625 -5.9062 1.7656 -6.3125 4.8438 c -0.40234 3.082 1.7656 5.9062 4.8477 6.3125 c 8.5977 1.0938 11.867 4.375 11.977 5.1836 c -0.1875 1.3008 -5.9062 5.5469 -17.215 5.5469 c -11.309 0 -17.031 -4.2422 -17.215 -5.4688 c 0.097656 -0.13281 0.54297 -1.0391 2.3164 -2.1328 z" stroke-linecap="round"/>
</g>
		<g transform="matrix(1.3333 0 0 1.3333 16.8916 -279.794)">
<path style="stroke: none; stroke-width: 1; stroke-dasharray: none; stroke-linecap: butt; stroke-dashoffset: 0; stroke-linejoin: miter; stroke-miterlimit: 4; is-custom-font: none; font-file-url: none; fill: rgb(0,0,0); fill-rule: nonzero; opacity: 1;" transform=" translate(-362.6706, -140.1554)" d="m 362.68 174.12 c 41.477 0 72.746 -15.094 72.746 -35.098 c 0 -14.941 -17.5 -27.453 -45.586 -32.672 c -3.0547 -0.57031 -5.9922 1.4414 -6.5625 4.4961 c -0.57422 3.0547 1.4414 5.9922 4.4922 6.5625 c 21.086 3.9141 36.391 13.004 36.391 21.613 c 0 11.254 -26.25 23.832 -61.48 23.832 s -61.48 -12.578 -61.48 -23.832 c 0 -8.6641 15.422 -17.773 36.672 -21.668 h 0.003906 c 3.0547 -0.55859 5.082 -3.4883 4.5234 -6.5469 c -0.55859 -3.0547 -3.4922 -5.082 -6.5469 -4.5234 c -28.316 5.1836 -45.938 17.73 -45.938 32.734 c 0.03125 20.008 31.301 35.102 72.766 35.102 z" stroke-linecap="round"/>
</g>
		<g transform="matrix(1.3333 0 0 1.3333 57.6065 -284.2331)">
<path style="stroke: none; stroke-width: 1; stroke-dasharray: none; stroke-linecap: butt; stroke-dashoffset: 0; stroke-linejoin: miter; stroke-miterlimit: 4; is-custom-font: none; font-file-url: none; fill: rgb(0,0,0); fill-rule: nonzero; opacity: 1;" transform=" translate(-393.2069, -136.8266)" d="m 320.58 97.957 c 13.832 -2.9805 27.949 -4.4453 42.098 -4.375 c 53.844 0 99.324 20.781 99.324 45.477 c 0 17.227 -23.406 33.82 -58.23 41.289 c -2.6641 0.73047 -4.4102 3.2812 -4.1172 6.0273 c 0.28906 2.7461 2.5273 4.8789 5.2852 5.0312 c 0.39844 0.003906 0.79297 -0.039062 1.1836 -0.12109 c 41.41 -8.8828 67.133 -28.918 67.133 -52.305 c 0 -31.816 -48.562 -56.734 -110.58 -56.734 v 0.003906 c -14.965 -0.058594 -29.895 1.5078 -44.527 4.6719 c -1.5859 0.17969 -3.0195 1.0234 -3.9453 2.3242 c -0.92969 1.3008 -1.2578 2.9336 -0.91406 4.4922 c 0.34766 1.5586 1.3359 2.8945 2.7266 3.6836 c 1.3906 0.78516 3.0469 0.94141 4.5625 0.4375 z" stroke-linecap="round"/>
</g>
		<g transform="matrix(1.3333 0 0 1.3333 84.4026 21.004)">
<path style="stroke: none; stroke-width: 1; stroke-dasharray: none; stroke-linecap: butt; stroke-dashoffset: 0; stroke-linejoin: miter; stroke-miterlimit: 4; is-custom-font: none; font-file-url: none; fill: rgb(0,0,0); fill-rule: nonzero; opacity: 1;" transform=" translate(-413.3039, -365.7546)" d="m 451.21 306.63 c -1.6758 2.6172 -0.91797 6.0938 1.6953 7.7773 c 12.129 7.7773 26.59 20.594 26.59 37.527 c 0 34.859 -63.195 64.312 -138.01 64.312 c -3.1133 0 -5.6328 2.5195 -5.6328 5.6328 c 0 3.1094 2.5195 5.6328 5.6328 5.6328 c 83.703 0 149.27 -33.195 149.27 -75.578 c 0 -17.422 -10.938 -33.676 -31.719 -47.031 h -0.003906 c -1.2617 -0.82031 -2.8008 -1.0977 -4.2695 -0.77344 c -1.4727 0.32422 -2.75 1.2266 -3.5508 2.5 z" stroke-linecap="round"/>
</g>
		<g transform="matrix(1.3333 0 0 1.3333 -184.2468 109.8866)">
<path style="stroke: none; stroke-width: 1; stroke-dasharray: none; stroke-linecap: butt; stroke-dashoffset: 0; stroke-linejoin: miter; stroke-miterlimit: 4; is-custom-font: none; font-file-url: none; fill: rgb(0,0,0); fill-rule: nonzero; opacity: 1;" transform=" translate(-211.8165, -432.416)" d="m 272.95 459.57 c -52.25 -10.871 -94.762 -33.906 -116.65 -63.188 v 0.003907 c -1.8594 -2.4883 -5.3789 -3 -7.8711 -1.1445 c -2.4883 1.8594 -3 5.3828 -1.1406 7.8711 c 23.504 31.469 68.469 56.055 123.36 67.484 c 0.37891 0.074219 0.76172 0.10938 1.1484 0.10938 c 2.8984 0.023438 5.3398 -2.1602 5.6367 -5.0469 c 0.29688 -2.8828 -1.6445 -5.5195 -4.4883 -6.0898 z" stroke-linecap="round"/>
</g>
		<g transform="matrix(1.3333 0 0 1.3333 126.6215 82.6689)">
<path style="stroke: none; stroke-width: 1; stroke-dasharray: none; stroke-linecap: butt; stroke-dashoffset: 0; stroke-linejoin: miter; stroke-miterlimit: 4; is-custom-font: none; font-file-url: none; fill: rgb(0,0,0); fill-rule: nonzero; opacity: 1;" transform=" translate(-444.9689, -412.0033)" d="m 548.21 346.3 c -3.1094 0.003906 -5.6289 2.5234 -5.6328 5.6328 c 0 63.141 -90.203 114.52 -201.09 114.52 c -3.0117 0.13281 -5.3867 2.6133 -5.3867 5.625 c 0 3.0156 2.375 5.4961 5.3867 5.6289 c 117.03 0 212.35 -56.414 212.35 -125.78 c -0.011719 -3.1055 -2.5312 -5.6172 -5.6328 -5.6211 z" stroke-linecap="round"/>
</g>
		<g transform="matrix(1.3333 0 0 1.3333 -36.334 -147.0197)">
<path style="stroke: none; stroke-width: 1; stroke-dasharray: none; stroke-linecap: butt; stroke-dashoffset: 0; stroke-linejoin: miter; stroke-miterlimit: 4; is-custom-font: none; font-file-url: none; fill: rgb(0,0,0); fill-rule: nonzero; opacity: 1;" transform=" translate(-322.7517, -239.7356)" d="m 238.6 253.32 c 0.60938 0 1.2148 -0.097657 1.793 -0.28516 c 30.625 -10.227 65.547 -15.629 101.09 -15.629 h 0.003907 c 21.551 -0.039062 43.055 1.9727 64.223 6.0156 c 3.0508 0.60156 6.0156 -1.3789 6.6172 -4.4297 c 0.60547 -3.0508 -1.3789 -6.0156 -4.4297 -6.6172 c -21.875 -4.1797 -44.098 -6.2656 -66.367 -6.2227 c -36.738 0 -72.941 5.6016 -104.67 16.211 v -0.003907 c -2.5898 0.89062 -4.1602 3.5195 -3.7188 6.2227 c 0.4375 2.6992 2.7617 4.6914 5.5 4.7148 z" stroke-linecap="round"/>
</g>
		<g transform="matrix(1.3333 0 0 1.3333 -370.719 299.2187)">
<path style="stroke: none; stroke-width: 1; stroke-dasharray: none; stroke-linecap: butt; stroke-dashoffset: 0; stroke-linejoin: miter; stroke-miterlimit: 4; is-custom-font: none; font-file-url: none; fill: rgb(0,0,0); fill-rule: nonzero; opacity: 1;" transform=" translate(-1.9609, 1.9922)" d="m 3.6562 -0.21875 c -0.1875 0.09375 -0.38672 0.16797 -0.59375 0.21875 c -0.19922 0.050781 -0.40625 0.078125 -0.625 0.078125 c -0.66797 0 -1.1992 -0.17969 -1.5938 -0.54688 c -0.38672 -0.375 -0.57812 -0.87891 -0.57812 -1.5156 c 0 -0.64453 0.19141 -1.1484 0.57812 -1.5156 c 0.39453 -0.375 0.92578 -0.5625 1.5938 -0.5625 c 0.21875 0 0.42578 0.027344 0.625 0.078125 c 0.20703 0.054687 0.40625 0.125 0.59375 0.21875 v 0.82812 c -0.1875 -0.125 -0.375 -0.21875 -0.5625 -0.28125 c -0.17969 -0.0625 -0.37109 -0.09375 -0.57812 -0.09375 c -0.36719 0 -0.65625 0.12109 -0.875 0.35938 c -0.21094 0.23047 -0.3125 0.55469 -0.3125 0.96875 c 0 0.40625 0.10156 0.73047 0.3125 0.96875 c 0.21875 0.23047 0.50781 0.34375 0.875 0.34375 c 0.20703 0 0.39844 -0.023437 0.57812 -0.078125 c 0.1875 -0.0625 0.375 -0.16016 0.5625 -0.29688 z" stroke-linecap="round"/>
</g>
		<g transform="matrix(1.3333 0 0 1.3333 -365.8907 299.8332)">
<path style="stroke: none; stroke-width: 1; stroke-dasharray: none; stroke-linecap: butt; stroke-dashoffset: 0; stroke-linejoin: miter; stroke-miterlimit: 4; is-custom-font: none; font-file-url: none; fill: rgb(0,0,0); fill-rule: nonzero; opacity: 1;" transform=" translate(-1.5703, 1.5313)" d="m 2.6875 -2.1719 c -0.085938 -0.039063 -0.16797 -0.070313 -0.25 -0.09375 c -0.085938 -0.019531 -0.16797 -0.03125 -0.25 -0.03125 c -0.25 0 -0.44531 0.085937 -0.57812 0.25 c -0.125 0.15625 -0.1875 0.38281 -0.1875 0.67188 v 1.375 h -0.96875 v -2.9844 h 0.96875 v 0.48438 c 0.11328 -0.19531 0.25 -0.33594 0.40625 -0.42188 c 0.16406 -0.09375 0.35938 -0.14062 0.57812 -0.14062 h 0.10938 c 0.039063 0 0.09375 0.007812 0.15625 0.015625 z" stroke-linecap="round"/>
</g>
		<g transform="matrix(1.3333 0 0 1.3333 -361.9376 299.8854)">
<path style="stroke: none; stroke-width: 1; stroke-dasharray: none; stroke-linecap: butt; stroke-dashoffset: 0; stroke-linejoin: miter; stroke-miterlimit: 4; is-custom-font: none; font-file-url: none; fill: rgb(0,0,0); fill-rule: nonzero; opacity: 1;" transform=" translate(-1.836, 1.4922)" d="m 3.4375 -1.5 v 0.26562 h -2.2344 c 0.03125 0.23047 0.11328 0.40234 0.25 0.51562 c 0.13281 0.10547 0.32812 0.15625 0.57812 0.15625 c 0.20703 0 0.41406 -0.023438 0.625 -0.078125 c 0.20703 -0.0625 0.42188 -0.15625 0.64062 -0.28125 v 0.73438 c -0.21875 0.09375 -0.44531 0.16406 -0.67188 0.20312 c -0.23047 0.039062 -0.45312 0.0625 -0.67188 0.0625 c -0.54297 0 -0.96484 -0.13281 -1.2656 -0.40625 c -0.30469 -0.28125 -0.45312 -0.67188 -0.45312 -1.1719 c 0 -0.47656 0.14453 -0.85938 0.4375 -1.1406 c 0.30078 -0.28125 0.70703 -0.42188 1.2188 -0.42188 c 0.46875 0 0.84375 0.14062 1.125 0.42188 s 0.42188 0.66406 0.42188 1.1406 z m -0.96875 -0.32812 c 0 -0.17578 -0.058594 -0.31641 -0.17188 -0.42188 c -0.10547 -0.11328 -0.24219 -0.17188 -0.40625 -0.17188 c -0.1875 0 -0.33984 0.054687 -0.45312 0.15625 c -0.11719 0.10547 -0.1875 0.25 -0.21875 0.4375 z" stroke-linecap="round"/>
</g>
		<g transform="matrix(1.3333 0 0 1.3333 -357.1094 299.8852)">
<path style="stroke: none; stroke-width: 1; stroke-dasharray: none; stroke-linecap: butt; stroke-dashoffset: 0; stroke-linejoin: miter; stroke-miterlimit: 4; is-custom-font: none; font-file-url: none; fill: rgb(0,0,0); fill-rule: nonzero; opacity: 1;" transform=" translate(-1.7501, 1.4923)" d="m 1.7969 -1.3438 c -0.19922 0 -0.35156 0.039062 -0.45312 0.10938 c -0.09375 0.0625 -0.14062 0.16406 -0.14062 0.29688 c 0 0.11719 0.035156 0.21094 0.10938 0.28125 c 0.082031 0.0625 0.19531 0.09375 0.34375 0.09375 c 0.17578 0 0.32812 -0.0625 0.45312 -0.1875 s 0.1875 -0.28516 0.1875 -0.48438 v -0.10938 z m 1.4688 -0.35938 v 1.7031 h -0.96875 v -0.4375 c -0.125 0.17969 -0.27344 0.30859 -0.4375 0.39062 c -0.15625 0.082031 -0.35156 0.125 -0.57812 0.125 c -0.3125 0 -0.57031 -0.085938 -0.76562 -0.26562 c -0.1875 -0.1875 -0.28125 -0.42188 -0.28125 -0.70312 c 0 -0.35156 0.11719 -0.61328 0.35938 -0.78125 c 0.23828 -0.16406 0.61719 -0.25 1.1406 -0.25 h 0.5625 v -0.0625 c 0 -0.15625 -0.0625 -0.26562 -0.1875 -0.32812 c -0.11719 -0.070312 -0.29688 -0.10938 -0.54688 -0.10938 c -0.21094 0 -0.40234 0.023437 -0.57812 0.0625 c -0.17969 0.042969 -0.33984 0.10156 -0.48438 0.17188 v -0.71875 c 0.19531 -0.050781 0.39844 -0.085938 0.60938 -0.10938 c 0.20703 -0.03125 0.41406 -0.046875 0.625 -0.046875 c 0.53906 0 0.92969 0.10938 1.1719 0.32812 c 0.23828 0.21094 0.35938 0.55469 0.35938 1.0312 z" stroke-linecap="round"/>
</g>
		<g transform="matrix(1.3333 0 0 1.3333 -352.8125 299.3124)">
<path style="stroke: none; stroke-width: 1; stroke-dasharray: none; stroke-linecap: butt; stroke-dashoffset: 0; stroke-linejoin: miter; stroke-miterlimit: 4; is-custom-font: none; font-file-url: none; fill: rgb(0,0,0); fill-rule: nonzero; opacity: 1;" transform=" translate(-1.2813, 1.922)" d="m 1.5 -3.8438 v 0.85938 h 0.98438 v 0.67188 h -0.98438 v 1.2812 c 0 0.13672 0.023438 0.23047 0.078125 0.28125 c 0.0625 0.042969 0.17578 0.0625 0.34375 0.0625 h 0.48438 v 0.6875 h -0.8125 c -0.38672 0 -0.65625 -0.078125 -0.8125 -0.23438 s -0.23438 -0.42188 -0.23438 -0.79688 v -1.2812 h -0.46875 v -0.67188 h 0.46875 v -0.85938 z" stroke-linecap="round"/>
</g>
		<g transform="matrix(1.3333 0 0 1.3333 -348.5886 299.8854)">
<path style="stroke: none; stroke-width: 1; stroke-dasharray: none; stroke-linecap: butt; stroke-dashoffset: 0; stroke-linejoin: miter; stroke-miterlimit: 4; is-custom-font: none; font-file-url: none; fill: rgb(0,0,0); fill-rule: nonzero; opacity: 1;" transform=" translate(-1.836, 1.4922)" d="m 3.4375 -1.5 v 0.26562 h -2.2344 c 0.03125 0.23047 0.11328 0.40234 0.25 0.51562 c 0.13281 0.10547 0.32812 0.15625 0.57812 0.15625 c 0.20703 0 0.41406 -0.023438 0.625 -0.078125 c 0.20703 -0.0625 0.42188 -0.15625 0.64062 -0.28125 v 0.73438 c -0.21875 0.09375 -0.44531 0.16406 -0.67188 0.20312 c -0.23047 0.039062 -0.45312 0.0625 -0.67188 0.0625 c -0.54297 0 -0.96484 -0.13281 -1.2656 -0.40625 c -0.30469 -0.28125 -0.45312 -0.67188 -0.45312 -1.1719 c 0 -0.47656 0.14453 -0.85938 0.4375 -1.1406 c 0.30078 -0.28125 0.70703 -0.42188 1.2188 -0.42188 c 0.46875 0 0.84375 0.14062 1.125 0.42188 s 0.42188 0.66406 0.42188 1.1406 z m -0.96875 -0.32812 c 0 -0.17578 -0.058594 -0.31641 -0.17188 -0.42188 c -0.10547 -0.11328 -0.24219 -0.17188 -0.40625 -0.17188 c -0.1875 0 -0.33984 0.054687 -0.45312 0.15625 c -0.11719 0.10547 -0.1875 0.25 -0.21875 0.4375 z" stroke-linecap="round"/>
</g>
		<g transform="matrix(1.3333 0 0 1.3333 -343.6199 299.1561)">
<path style="stroke: none; stroke-width: 1; stroke-dasharray: none; stroke-linecap: butt; stroke-dashoffset: 0; stroke-linejoin: miter; stroke-miterlimit: 4; is-custom-font: none; font-file-url: none; fill: rgb(0,0,0); fill-rule: nonzero; opacity: 1;" transform=" translate(-1.8516, 2.0391)" d="m 2.5 -2.5469 v -1.6094 h 0.95312 v 4.1562 h -0.95312 v -0.4375 c -0.13672 0.17969 -0.28125 0.30859 -0.4375 0.39062 c -0.15625 0.082031 -0.33984 0.125 -0.54688 0.125 c -0.375 0 -0.68359 -0.14453 -0.92188 -0.4375 c -0.23047 -0.28906 -0.34375 -0.67188 -0.34375 -1.1406 c 0 -0.45703 0.11328 -0.83203 0.34375 -1.125 c 0.23828 -0.28906 0.54688 -0.4375 0.92188 -0.4375 c 0.19531 0 0.375 0.042969 0.53125 0.125 c 0.16406 0.085938 0.31641 0.21484 0.45312 0.39062 z m -0.64062 1.9375 c 0.20703 0 0.36328 -0.070313 0.46875 -0.21875 c 0.11328 -0.15625 0.17188 -0.37891 0.17188 -0.67188 c 0 -0.28125 -0.058594 -0.49219 -0.17188 -0.64062 c -0.10547 -0.15625 -0.26172 -0.23438 -0.46875 -0.23438 c -0.19922 0 -0.35547 0.078125 -0.46875 0.23438 c -0.10547 0.14844 -0.15625 0.35938 -0.15625 0.64062 c 0 0.29297 0.050781 0.51562 0.15625 0.67188 c 0.11328 0.14844 0.26953 0.21875 0.46875 0.21875 z" stroke-linecap="round"/>
</g>
		<g transform="matrix(1.3333 0 0 1.3333 -335.5834 299.1562)">
<path style="stroke: none; stroke-width: 1; stroke-dasharray: none; stroke-linecap: butt; stroke-dashoffset: 0; stroke-linejoin: miter; stroke-miterlimit: 4; is-custom-font: none; font-file-url: none; fill: rgb(0,0,0); fill-rule: nonzero; opacity: 1;" transform=" translate(-2.0625, 2.0391)" d="m 2.0469 -0.60938 c 0.20703 0 0.36328 -0.070313 0.46875 -0.21875 c 0.11328 -0.15625 0.17188 -0.37891 0.17188 -0.67188 c 0 -0.28125 -0.058594 -0.49219 -0.17188 -0.64062 c -0.10547 -0.15625 -0.26172 -0.23438 -0.46875 -0.23438 c -0.19922 0 -0.35547 0.078125 -0.46875 0.23438 c -0.10547 0.14844 -0.15625 0.35938 -0.15625 0.64062 c 0 0.29297 0.050781 0.51562 0.15625 0.67188 c 0.11328 0.14844 0.26953 0.21875 0.46875 0.21875 z m -0.625 -1.9375 c 0.125 -0.17578 0.26562 -0.30469 0.42188 -0.39062 c 0.16406 -0.082031 0.35156 -0.125 0.5625 -0.125 c 0.36328 0 0.66406 0.14844 0.90625 0.4375 c 0.23828 0.29297 0.35938 0.66797 0.35938 1.125 c 0 0.46875 -0.12109 0.85156 -0.35938 1.1406 c -0.24219 0.29297 -0.54297 0.4375 -0.90625 0.4375 c -0.21094 0 -0.39844 -0.042969 -0.5625 -0.125 c -0.15625 -0.082031 -0.29688 -0.21094 -0.42188 -0.39062 v 0.4375 h -0.96875 v -4.1562 h 0.96875 z" stroke-linecap="round"/>
</g>
		<g transform="matrix(1.3333 0 0 1.3333 -330.7553 300.6769)">
<path style="stroke: none; stroke-width: 1; stroke-dasharray: none; stroke-linecap: butt; stroke-dashoffset: 0; stroke-linejoin: miter; stroke-miterlimit: 4; is-custom-font: none; font-file-url: none; fill: rgb(0,0,0); fill-rule: nonzero; opacity: 1;" transform=" translate(-1.7656, 0.8985)" d="m 0.0625 -2.9844 h 0.95312 l 0.8125 2.0156 l 0.6875 -2.0156 h 0.95312 l -1.2656 3.2656 c -0.125 0.33203 -0.27344 0.56641 -0.4375 0.70312 c -0.16797 0.13281 -0.39062 0.20312 -0.67188 0.20312 h -0.54688 v -0.64062 h 0.29688 c 0.16406 0 0.28516 -0.027344 0.35938 -0.078125 c 0.070313 -0.054688 0.12891 -0.14062 0.17188 -0.26562 l 0.03125 -0.09375 z" stroke-linecap="round"/>
</g>
		<g transform="matrix(1.3333 0 0 1.3333 -323.3282 299.2186)">
<path style="stroke: none; stroke-width: 1; stroke-dasharray: none; stroke-linecap: butt; stroke-dashoffset: 0; stroke-linejoin: miter; stroke-miterlimit: 4; is-custom-font: none; font-file-url: none; fill: rgb(0,0,0); fill-rule: nonzero; opacity: 1;" transform=" translate(-1.8672, 1.9922)" d="m 0.03125 -3.9844 h 3.6719 v 0.78125 h -1.3281 v 3.2031 h -1.0312 v -3.2031 h -1.3125 z" stroke-linecap="round"/>
</g>
		<g transform="matrix(1.3333 0 0 1.3333 -318.3959 299.8854)">
<path style="stroke: none; stroke-width: 1; stroke-dasharray: none; stroke-linecap: butt; stroke-dashoffset: 0; stroke-linejoin: miter; stroke-miterlimit: 4; is-custom-font: none; font-file-url: none; fill: rgb(0,0,0); fill-rule: nonzero; opacity: 1;" transform=" translate(-1.836, 1.4922)" d="m 3.4375 -1.5 v 0.26562 h -2.2344 c 0.03125 0.23047 0.11328 0.40234 0.25 0.51562 c 0.13281 0.10547 0.32812 0.15625 0.57812 0.15625 c 0.20703 0 0.41406 -0.023438 0.625 -0.078125 c 0.20703 -0.0625 0.42188 -0.15625 0.64062 -0.28125 v 0.73438 c -0.21875 0.09375 -0.44531 0.16406 -0.67188 0.20312 c -0.23047 0.039062 -0.45312 0.0625 -0.67188 0.0625 c -0.54297 0 -0.96484 -0.13281 -1.2656 -0.40625 c -0.30469 -0.28125 -0.45312 -0.67188 -0.45312 -1.1719 c 0 -0.47656 0.14453 -0.85938 0.4375 -1.1406 c 0.30078 -0.28125 0.70703 -0.42188 1.2188 -0.42188 c 0.46875 0 0.84375 0.14062 1.125 0.42188 s 0.42188 0.66406 0.42188 1.1406 z m -0.96875 -0.32812 c 0 -0.17578 -0.058594 -0.31641 -0.17188 -0.42188 c -0.10547 -0.11328 -0.24219 -0.17188 -0.40625 -0.17188 c -0.1875 0 -0.33984 0.054687 -0.45312 0.15625 c -0.11719 0.10547 -0.1875 0.25 -0.21875 0.4375 z" stroke-linecap="round"/>
</g>
		<g transform="matrix(1.3333 0 0 1.3333 -313.4532 299.8854)">
<path style="stroke: none; stroke-width: 1; stroke-dasharray: none; stroke-linecap: butt; stroke-dashoffset: 0; stroke-linejoin: miter; stroke-miterlimit: 4; is-custom-font: none; font-file-url: none; fill: rgb(0,0,0); fill-rule: nonzero; opacity: 1;" transform=" translate(-1.836, 1.4922)" d="m 3.4375 -1.5 v 0.26562 h -2.2344 c 0.03125 0.23047 0.11328 0.40234 0.25 0.51562 c 0.13281 0.10547 0.32812 0.15625 0.57812 0.15625 c 0.20703 0 0.41406 -0.023438 0.625 -0.078125 c 0.20703 -0.0625 0.42188 -0.15625 0.64062 -0.28125 v 0.73438 c -0.21875 0.09375 -0.44531 0.16406 -0.67188 0.20312 c -0.23047 0.039062 -0.45312 0.0625 -0.67188 0.0625 c -0.54297 0 -0.96484 -0.13281 -1.2656 -0.40625 c -0.30469 -0.28125 -0.45312 -0.67188 -0.45312 -1.1719 c 0 -0.47656 0.14453 -0.85938 0.4375 -1.1406 c 0.30078 -0.28125 0.70703 -0.42188 1.2188 -0.42188 c 0.46875 0 0.84375 0.14062 1.125 0.42188 s 0.42188 0.66406 0.42188 1.1406 z m -0.96875 -0.32812 c 0 -0.17578 -0.058594 -0.31641 -0.17188 -0.42188 c -0.10547 -0.11328 -0.24219 -0.17188 -0.40625 -0.17188 c -0.1875 0 -0.33984 0.054687 -0.45312 0.15625 c -0.11719 0.10547 -0.1875 0.25 -0.21875 0.4375 z" stroke-linecap="round"/>
</g>
		<g transform="matrix(1.3333 0 0 1.3333 -307.5886 299.8853)">
<path style="stroke: none; stroke-width: 1; stroke-dasharray: none; stroke-linecap: butt; stroke-dashoffset: 0; stroke-linejoin: miter; stroke-miterlimit: 4; is-custom-font: none; font-file-url: none; fill: rgb(0,0,0); fill-rule: nonzero; opacity: 1;" transform=" translate(-2.5234, 1.4922)" d="m 0.1875 -2.9844 h 0.9375 l 0.5 2.0625 l 0.5 -2.0625 h 0.79688 l 0.5 2.0312 l 0.51562 -2.0312 h 0.92188 l -0.78125 2.9844 h -1.0469 l -0.5 -2.0625 l -0.5 2.0625 h -1.0469 z" stroke-linecap="round"/>
</g>
		<g transform="matrix(1.3333 0 0 1.3333 -301.8854 299.8852)">
<path style="stroke: none; stroke-width: 1; stroke-dasharray: none; stroke-linecap: butt; stroke-dashoffset: 0; stroke-linejoin: miter; stroke-miterlimit: 4; is-custom-font: none; font-file-url: none; fill: rgb(0,0,0); fill-rule: nonzero; opacity: 1;" transform=" translate(-1.7501, 1.4923)" d="m 1.7969 -1.3438 c -0.19922 0 -0.35156 0.039062 -0.45312 0.10938 c -0.09375 0.0625 -0.14062 0.16406 -0.14062 0.29688 c 0 0.11719 0.035156 0.21094 0.10938 0.28125 c 0.082031 0.0625 0.19531 0.09375 0.34375 0.09375 c 0.17578 0 0.32812 -0.0625 0.45312 -0.1875 s 0.1875 -0.28516 0.1875 -0.48438 v -0.10938 z m 1.4688 -0.35938 v 1.7031 h -0.96875 v -0.4375 c -0.125 0.17969 -0.27344 0.30859 -0.4375 0.39062 c -0.15625 0.082031 -0.35156 0.125 -0.57812 0.125 c -0.3125 0 -0.57031 -0.085938 -0.76562 -0.26562 c -0.1875 -0.1875 -0.28125 -0.42188 -0.28125 -0.70312 c 0 -0.35156 0.11719 -0.61328 0.35938 -0.78125 c 0.23828 -0.16406 0.61719 -0.25 1.1406 -0.25 h 0.5625 v -0.0625 c 0 -0.15625 -0.0625 -0.26562 -0.1875 -0.32812 c -0.11719 -0.070312 -0.29688 -0.10938 -0.54688 -0.10938 c -0.21094 0 -0.40234 0.023437 -0.57812 0.0625 c -0.17969 0.042969 -0.33984 0.10156 -0.48438 0.17188 v -0.71875 c 0.19531 -0.050781 0.39844 -0.085938 0.60938 -0.10938 c 0.20703 -0.03125 0.41406 -0.046875 0.625 -0.046875 c 0.53906 0 0.92969 0.10938 1.1719 0.32812 c 0.23828 0.21094 0.35938 0.55469 0.35938 1.0312 z" stroke-linecap="round"/>
</g>
		<g transform="matrix(1.3333 0 0 1.3333 -297.2032 299.8332)">
<path style="stroke: none; stroke-width: 1; stroke-dasharray: none; stroke-linecap: butt; stroke-dashoffset: 0; stroke-linejoin: miter; stroke-miterlimit: 4; is-custom-font: none; font-file-url: none; fill: rgb(0,0,0); fill-rule: nonzero; opacity: 1;" transform=" translate(-1.5703, 1.5313)" d="m 2.6875 -2.1719 c -0.085938 -0.039063 -0.16797 -0.070313 -0.25 -0.09375 c -0.085938 -0.019531 -0.16797 -0.03125 -0.25 -0.03125 c -0.25 0 -0.44531 0.085937 -0.57812 0.25 c -0.125 0.15625 -0.1875 0.38281 -0.1875 0.67188 v 1.375 h -0.96875 v -2.9844 h 0.96875 v 0.48438 c 0.11328 -0.19531 0.25 -0.33594 0.40625 -0.42188 c 0.16406 -0.09375 0.35938 -0.14062 0.57812 -0.14062 h 0.10938 c 0.039063 0 0.09375 0.007812 0.15625 0.015625 z" stroke-linecap="round"/>
</g>
		<g transform="matrix(1.3333 0 0 1.3333 -293.3698 299.8852)">
<path style="stroke: none; stroke-width: 1; stroke-dasharray: none; stroke-linecap: butt; stroke-dashoffset: 0; stroke-linejoin: miter; stroke-miterlimit: 4; is-custom-font: none; font-file-url: none; fill: rgb(0,0,0); fill-rule: nonzero; opacity: 1;" transform=" translate(-1.7501, 1.4923)" d="m 1.7969 -1.3438 c -0.19922 0 -0.35156 0.039062 -0.45312 0.10938 c -0.09375 0.0625 -0.14062 0.16406 -0.14062 0.29688 c 0 0.11719 0.035156 0.21094 0.10938 0.28125 c 0.082031 0.0625 0.19531 0.09375 0.34375 0.09375 c 0.17578 0 0.32812 -0.0625 0.45312 -0.1875 s 0.1875 -0.28516 0.1875 -0.48438 v -0.10938 z m 1.4688 -0.35938 v 1.7031 h -0.96875 v -0.4375 c -0.125 0.17969 -0.27344 0.30859 -0.4375 0.39062 c -0.15625 0.082031 -0.35156 0.125 -0.57812 0.125 c -0.3125 0 -0.57031 -0.085938 -0.76562 -0.26562 c -0.1875 -0.1875 -0.28125 -0.42188 -0.28125 -0.70312 c 0 -0.35156 0.11719 -0.61328 0.35938 -0.78125 c 0.23828 -0.16406 0.61719 -0.25 1.1406 -0.25 h 0.5625 v -0.0625 c 0 -0.15625 -0.0625 -0.26562 -0.1875 -0.32812 c -0.11719 -0.070312 -0.29688 -0.10938 -0.54688 -0.10938 c -0.21094 0 -0.40234 0.023437 -0.57812 0.0625 c -0.17969 0.042969 -0.33984 0.10156 -0.48438 0.17188 v -0.71875 c 0.19531 -0.050781 0.39844 -0.085938 0.60938 -0.10938 c 0.20703 -0.03125 0.41406 -0.046875 0.625 -0.046875 c 0.53906 0 0.92969 0.10938 1.1719 0.32812 c 0.23828 0.21094 0.35938 0.55469 0.35938 1.0312 z" stroke-linecap="round"/>
</g>
		<g transform="matrix(1.3333 0 0 1.3333 -286.0574 299.8853)">
<path style="stroke: none; stroke-width: 1; stroke-dasharray: none; stroke-linecap: butt; stroke-dashoffset: 0; stroke-linejoin: miter; stroke-miterlimit: 4; is-custom-font: none; font-file-url: none; fill: rgb(0,0,0); fill-rule: nonzero; opacity: 1;" transform=" translate(-1.6406, 1.4922)" d="m 2.7969 -2.8906 v 0.71875 c -0.21094 -0.082031 -0.40625 -0.14453 -0.59375 -0.1875 c -0.1875 -0.039063 -0.37109 -0.0625 -0.54688 -0.0625 c -0.17969 0 -0.3125 0.023437 -0.40625 0.0625 c -0.085938 0.042969 -0.125 0.10938 -0.125 0.20312 c 0 0.085938 0.03125 0.14844 0.09375 0.1875 c 0.070312 0.042969 0.19531 0.074219 0.375 0.09375 l 0.15625 0.015625 c 0.48828 0.0625 0.81641 0.16797 0.98438 0.3125 c 0.17578 0.13672 0.26562 0.35938 0.26562 0.67188 s -0.12109 0.55469 -0.35938 0.71875 c -0.23047 0.15625 -0.57812 0.23438 -1.0469 0.23438 c -0.19922 0 -0.40625 -0.015625 -0.625 -0.046875 c -0.21094 -0.03125 -0.42188 -0.078125 -0.64062 -0.14062 v -0.71875 c 0.1875 0.085937 0.37891 0.15234 0.57812 0.20312 c 0.20703 0.042969 0.41406 0.0625 0.625 0.0625 c 0.1875 0 0.32812 -0.023438 0.42188 -0.078125 c 0.09375 -0.050781 0.14062 -0.125 0.14062 -0.21875 s -0.039062 -0.16016 -0.10938 -0.20312 c -0.0625 -0.039062 -0.1875 -0.070312 -0.375 -0.09375 l -0.17188 -0.015625 c -0.42969 -0.050781 -0.73047 -0.14844 -0.90625 -0.29688 c -0.16797 -0.14453 -0.25 -0.36328 -0.25 -0.65625 c 0 -0.32031 0.10938 -0.55469 0.32812 -0.70312 c 0.21875 -0.15625 0.55078 -0.23438 1 -0.23438 c 0.17578 0 0.35938 0.015625 0.54688 0.046875 c 0.19531 0.023437 0.41016 0.0625 0.64062 0.125 z" stroke-linecap="round"/>
</g>
		<g transform="matrix(1.3333 0 0 1.3333 -281.4011 299.8854)">
<path style="stroke: none; stroke-width: 1; stroke-dasharray: none; stroke-linecap: butt; stroke-dashoffset: 0; stroke-linejoin: miter; stroke-miterlimit: 4; is-custom-font: none; font-file-url: none; fill: rgb(0,0,0); fill-rule: nonzero; opacity: 1;" transform=" translate(-1.875, 1.4922)" d="m 1.875 -2.375 c -0.21094 0 -0.37109 0.078125 -0.48438 0.23438 c -0.10547 0.14844 -0.15625 0.35938 -0.15625 0.64062 c 0 0.29297 0.050781 0.51562 0.15625 0.67188 c 0.11328 0.14844 0.27344 0.21875 0.48438 0.21875 c 0.20703 0 0.36719 -0.070313 0.48438 -0.21875 c 0.11328 -0.15625 0.17188 -0.37891 0.17188 -0.67188 c 0 -0.28125 -0.058594 -0.49219 -0.17188 -0.64062 c -0.11719 -0.15625 -0.27734 -0.23438 -0.48438 -0.23438 z m 0 -0.6875 c 0.51953 0 0.92188 0.14062 1.2031 0.42188 c 0.28906 0.27344 0.4375 0.65234 0.4375 1.1406 c 0 0.5 -0.14844 0.89062 -0.4375 1.1719 c -0.28125 0.27344 -0.68359 0.40625 -1.2031 0.40625 c -0.51172 0 -0.91406 -0.13281 -1.2031 -0.40625 c -0.29297 -0.28125 -0.4375 -0.67188 -0.4375 -1.1719 c 0 -0.48828 0.14453 -0.86719 0.4375 -1.1406 c 0.28906 -0.28125 0.69141 -0.42188 1.2031 -0.42188 z" stroke-linecap="round"/>
</g>
		<g transform="matrix(1.3333 0 0 1.3333 -276.3959 299.8854)">
<path style="stroke: none; stroke-width: 1; stroke-dasharray: none; stroke-linecap: butt; stroke-dashoffset: 0; stroke-linejoin: miter; stroke-miterlimit: 4; is-custom-font: none; font-file-url: none; fill: rgb(0,0,0); fill-rule: nonzero; opacity: 1;" transform=" translate(-1.875, 1.4922)" d="m 1.875 -2.375 c -0.21094 0 -0.37109 0.078125 -0.48438 0.23438 c -0.10547 0.14844 -0.15625 0.35938 -0.15625 0.64062 c 0 0.29297 0.050781 0.51562 0.15625 0.67188 c 0.11328 0.14844 0.27344 0.21875 0.48438 0.21875 c 0.20703 0 0.36719 -0.070313 0.48438 -0.21875 c 0.11328 -0.15625 0.17188 -0.37891 0.17188 -0.67188 c 0 -0.28125 -0.058594 -0.49219 -0.17188 -0.64062 c -0.11719 -0.15625 -0.27734 -0.23438 -0.48438 -0.23438 z m 0 -0.6875 c 0.51953 0 0.92188 0.14062 1.2031 0.42188 c 0.28906 0.27344 0.4375 0.65234 0.4375 1.1406 c 0 0.5 -0.14844 0.89062 -0.4375 1.1719 c -0.28125 0.27344 -0.68359 0.40625 -1.2031 0.40625 c -0.51172 0 -0.91406 -0.13281 -1.2031 -0.40625 c -0.29297 -0.28125 -0.4375 -0.67188 -0.4375 -1.1719 c 0 -0.48828 0.14453 -0.86719 0.4375 -1.1406 c 0.28906 -0.28125 0.69141 -0.42188 1.2031 -0.42188 z" stroke-linecap="round"/>
</g>
		<g transform="matrix(1.3333 0 0 1.3333 -271.2708 299.8334)">
<path style="stroke: none; stroke-width: 1; stroke-dasharray: none; stroke-linecap: butt; stroke-dashoffset: 0; stroke-linejoin: miter; stroke-miterlimit: 4; is-custom-font: none; font-file-url: none; fill: rgb(0,0,0); fill-rule: nonzero; opacity: 1;" transform=" translate(-1.961, 1.5312)" d="m 3.4688 -1.8281 v 1.8281 h -0.96875 v -1.3906 c 0 -0.25781 -0.007812 -0.4375 -0.015625 -0.53125 c -0.011719 -0.10156 -0.03125 -0.17578 -0.0625 -0.21875 c -0.03125 -0.0625 -0.085937 -0.10938 -0.15625 -0.14062 c -0.0625 -0.039062 -0.13281 -0.0625 -0.20312 -0.0625 c -0.21094 0 -0.37109 0.078125 -0.48438 0.23438 c -0.10547 0.15625 -0.15625 0.37109 -0.15625 0.64062 v 1.4688 h -0.96875 v -2.9844 h 0.96875 v 0.4375 c 0.13281 -0.17578 0.28516 -0.30469 0.45312 -0.39062 c 0.16406 -0.082031 0.34375 -0.125 0.53125 -0.125 c 0.34375 0 0.60156 0.10938 0.78125 0.32812 c 0.1875 0.21094 0.28125 0.51172 0.28125 0.90625 z" stroke-linecap="round"/>
</g>
		<g transform="matrix(1.3333 0 0 1.3333 -266.9844 299.3124)">
<path style="stroke: none; stroke-width: 1; stroke-dasharray: none; stroke-linecap: butt; stroke-dashoffset: 0; stroke-linejoin: miter; stroke-miterlimit: 4; is-custom-font: none; font-file-url: none; fill: rgb(0,0,0); fill-rule: nonzero; opacity: 1;" transform=" translate(-1.2813, 1.922)" d="m 1.5 -3.8438 v 0.85938 h 0.98438 v 0.67188 h -0.98438 v 1.2812 c 0 0.13672 0.023438 0.23047 0.078125 0.28125 c 0.0625 0.042969 0.17578 0.0625 0.34375 0.0625 h 0.48438 v 0.6875 h -0.8125 c -0.38672 0 -0.65625 -0.078125 -0.8125 -0.23438 s -0.23438 -0.42188 -0.23438 -0.79688 v -1.2812 h -0.46875 v -0.67188 h 0.46875 v -0.85938 z" stroke-linecap="round"/>
</g>
		<g transform="matrix(1.3333 0 0 1.3333 -262.7084 299.8854)">
<path style="stroke: none; stroke-width: 1; stroke-dasharray: none; stroke-linecap: butt; stroke-dashoffset: 0; stroke-linejoin: miter; stroke-miterlimit: 4; is-custom-font: none; font-file-url: none; fill: rgb(0,0,0); fill-rule: nonzero; opacity: 1;" transform=" translate(-1.875, 1.4922)" d="m 1.875 -2.375 c -0.21094 0 -0.37109 0.078125 -0.48438 0.23438 c -0.10547 0.14844 -0.15625 0.35938 -0.15625 0.64062 c 0 0.29297 0.050781 0.51562 0.15625 0.67188 c 0.11328 0.14844 0.27344 0.21875 0.48438 0.21875 c 0.20703 0 0.36719 -0.070313 0.48438 -0.21875 c 0.11328 -0.15625 0.17188 -0.37891 0.17188 -0.67188 c 0 -0.28125 -0.058594 -0.49219 -0.17188 -0.64062 c -0.11719 -0.15625 -0.27734 -0.23438 -0.48438 -0.23438 z m 0 -0.6875 c 0.51953 0 0.92188 0.14062 1.2031 0.42188 c 0.28906 0.27344 0.4375 0.65234 0.4375 1.1406 c 0 0.5 -0.14844 0.89062 -0.4375 1.1719 c -0.28125 0.27344 -0.68359 0.40625 -1.2031 0.40625 c -0.51172 0 -0.91406 -0.13281 -1.2031 -0.40625 c -0.29297 -0.28125 -0.4375 -0.67188 -0.4375 -1.1719 c 0 -0.48828 0.14453 -0.86719 0.4375 -1.1406 c 0.28906 -0.28125 0.69141 -0.42188 1.2031 -0.42188 z" stroke-linecap="round"/>
</g>
		<g transform="matrix(1.3333 0 0 1.3333 -258.1042 299.8332)">
<path style="stroke: none; stroke-width: 1; stroke-dasharray: none; stroke-linecap: butt; stroke-dashoffset: 0; stroke-linejoin: miter; stroke-miterlimit: 4; is-custom-font: none; font-file-url: none; fill: rgb(0,0,0); fill-rule: nonzero; opacity: 1;" transform=" translate(-1.5703, 1.5313)" d="m 2.6875 -2.1719 c -0.085938 -0.039063 -0.16797 -0.070313 -0.25 -0.09375 c -0.085938 -0.019531 -0.16797 -0.03125 -0.25 -0.03125 c -0.25 0 -0.44531 0.085937 -0.57812 0.25 c -0.125 0.15625 -0.1875 0.38281 -0.1875 0.67188 v 1.375 h -0.96875 v -2.9844 h 0.96875 v 0.48438 c 0.11328 -0.19531 0.25 -0.33594 0.40625 -0.42188 c 0.16406 -0.09375 0.35938 -0.14062 0.57812 -0.14062 h 0.10938 c 0.039063 0 0.09375 0.007812 0.15625 0.015625 z" stroke-linecap="round"/>
</g>
		<g transform="matrix(1.3333 0 0 1.3333 -253.9896 299.8334)">
<path style="stroke: none; stroke-width: 1; stroke-dasharray: none; stroke-linecap: butt; stroke-dashoffset: 0; stroke-linejoin: miter; stroke-miterlimit: 4; is-custom-font: none; font-file-url: none; fill: rgb(0,0,0); fill-rule: nonzero; opacity: 1;" transform=" translate(-1.961, 1.5312)" d="m 3.4688 -1.8281 v 1.8281 h -0.96875 v -1.3906 c 0 -0.25781 -0.007812 -0.4375 -0.015625 -0.53125 c -0.011719 -0.10156 -0.03125 -0.17578 -0.0625 -0.21875 c -0.03125 -0.0625 -0.085937 -0.10938 -0.15625 -0.14062 c -0.0625 -0.039062 -0.13281 -0.0625 -0.20312 -0.0625 c -0.21094 0 -0.37109 0.078125 -0.48438 0.23438 c -0.10547 0.15625 -0.15625 0.37109 -0.15625 0.64062 v 1.4688 h -0.96875 v -2.9844 h 0.96875 v 0.4375 c 0.13281 -0.17578 0.28516 -0.30469 0.45312 -0.39062 c 0.16406 -0.082031 0.34375 -0.125 0.53125 -0.125 c 0.34375 0 0.60156 0.10938 0.78125 0.32812 c 0.1875 0.21094 0.28125 0.51172 0.28125 0.90625 z" stroke-linecap="round"/>
</g>
		<g transform="matrix(1.3333 0 0 1.3333 -371.6458 306.3958)">
<path style="stroke: none; stroke-width: 1; stroke-dasharray: none; stroke-linecap: butt; stroke-dashoffset: 0; stroke-linejoin: miter; stroke-miterlimit: 4; is-custom-font: none; font-file-url: none; fill: rgb(0,0,0); fill-rule: nonzero; opacity: 1;" transform=" translate(-1.2657, 2.0781)" d="m 2.4219 -4.1562 v 0.625 h -0.51562 c -0.13672 0 -0.23438 0.027344 -0.29688 0.078125 c -0.054687 0.054687 -0.078125 0.13672 -0.078125 0.25 v 0.21875 h 0.82812 v 0.67188 h -0.82812 v 2.3125 h -0.95312 v -2.3125 h -0.46875 v -0.67188 h 0.46875 v -0.21875 c 0 -0.32031 0.085937 -0.5625 0.26562 -0.71875 c 0.1875 -0.15625 0.47266 -0.23438 0.85938 -0.23438 z" stroke-linecap="round"/>
</g>
		<g transform="matrix(1.3333 0 0 1.3333 -368.0678 307.1249)">
<path style="stroke: none; stroke-width: 1; stroke-dasharray: none; stroke-linecap: butt; stroke-dashoffset: 0; stroke-linejoin: miter; stroke-miterlimit: 4; is-custom-font: none; font-file-url: none; fill: rgb(0,0,0); fill-rule: nonzero; opacity: 1;" transform=" translate(-1.5703, 1.5313)" d="m 2.6875 -2.1719 c -0.085938 -0.039063 -0.16797 -0.070313 -0.25 -0.09375 c -0.085938 -0.019531 -0.16797 -0.03125 -0.25 -0.03125 c -0.25 0 -0.44531 0.085937 -0.57812 0.25 c -0.125 0.15625 -0.1875 0.38281 -0.1875 0.67188 v 1.375 h -0.96875 v -2.9844 h 0.96875 v 0.48438 c 0.11328 -0.19531 0.25 -0.33594 0.40625 -0.42188 c 0.16406 -0.09375 0.35938 -0.14062 0.57812 -0.14062 h 0.10938 c 0.039063 0 0.09375 0.007812 0.15625 0.015625 z" stroke-linecap="round"/>
</g>
		<g transform="matrix(1.3333 0 0 1.3333 -364.0625 307.1771)">
<path style="stroke: none; stroke-width: 1; stroke-dasharray: none; stroke-linecap: butt; stroke-dashoffset: 0; stroke-linejoin: miter; stroke-miterlimit: 4; is-custom-font: none; font-file-url: none; fill: rgb(0,0,0); fill-rule: nonzero; opacity: 1;" transform=" translate(-1.875, 1.4922)" d="m 1.875 -2.375 c -0.21094 0 -0.37109 0.078125 -0.48438 0.23438 c -0.10547 0.14844 -0.15625 0.35938 -0.15625 0.64062 c 0 0.29297 0.050781 0.51562 0.15625 0.67188 c 0.11328 0.14844 0.27344 0.21875 0.48438 0.21875 c 0.20703 0 0.36719 -0.070313 0.48438 -0.21875 c 0.11328 -0.15625 0.17188 -0.37891 0.17188 -0.67188 c 0 -0.28125 -0.058594 -0.49219 -0.17188 -0.64062 c -0.11719 -0.15625 -0.27734 -0.23438 -0.48438 -0.23438 z m 0 -0.6875 c 0.51953 0 0.92188 0.14062 1.2031 0.42188 c 0.28906 0.27344 0.4375 0.65234 0.4375 1.1406 c 0 0.5 -0.14844 0.89062 -0.4375 1.1719 c -0.28125 0.27344 -0.68359 0.40625 -1.2031 0.40625 c -0.51172 0 -0.91406 -0.13281 -1.2031 -0.40625 c -0.29297 -0.28125 -0.4375 -0.67188 -0.4375 -1.1719 c 0 -0.48828 0.14453 -0.86719 0.4375 -1.1406 c 0.28906 -0.28125 0.69141 -0.42188 1.2031 -0.42188 z" stroke-linecap="round"/>
</g>
		<g transform="matrix(1.3333 0 0 1.3333 -357.7449 307.125)">
<path style="stroke: none; stroke-width: 1; stroke-dasharray: none; stroke-linecap: butt; stroke-dashoffset: 0; stroke-linejoin: miter; stroke-miterlimit: 4; is-custom-font: none; font-file-url: none; fill: rgb(0,0,0); fill-rule: nonzero; opacity: 1;" transform=" translate(-2.8594, 1.5312)" d="m 3.2344 -2.5 c 0.11328 -0.17578 0.25391 -0.3125 0.42188 -0.40625 c 0.16406 -0.10156 0.35156 -0.15625 0.5625 -0.15625 c 0.33203 0 0.58594 0.10938 0.76562 0.32812 c 0.1875 0.21094 0.28125 0.51172 0.28125 0.90625 v 1.8281 h -0.96875 v -1.5625 c 0.007813 -0.019531 0.015625 -0.039062 0.015625 -0.0625 v -0.10938 c 0 -0.21875 -0.03125 -0.375 -0.09375 -0.46875 s -0.16406 -0.14062 -0.29688 -0.14062 c -0.1875 0 -0.33594 0.078125 -0.4375 0.23438 c -0.09375 0.14844 -0.14062 0.35938 -0.14062 0.64062 v 1.4688 h -0.96875 v -1.5625 c 0 -0.33203 -0.03125 -0.54688 -0.09375 -0.64062 c -0.054688 -0.09375 -0.15234 -0.14062 -0.29688 -0.14062 c -0.17969 0 -0.32031 0.078125 -0.42188 0.23438 c -0.09375 0.14844 -0.14062 0.35938 -0.14062 0.64062 v 1.4688 h -0.96875 v -2.9844 h 0.96875 v 0.4375 c 0.11328 -0.17578 0.24219 -0.30469 0.39062 -0.39062 c 0.15625 -0.082031 0.32812 -0.125 0.51562 -0.125 c 0.20703 0 0.39062 0.054688 0.54688 0.15625 c 0.15625 0.09375 0.27344 0.23047 0.35938 0.40625 z" stroke-linecap="round"/>
</g>
		<g transform="matrix(1.3333 0 0 1.3333 -349.7084 306.604)">
<path style="stroke: none; stroke-width: 1; stroke-dasharray: none; stroke-linecap: butt; stroke-dashoffset: 0; stroke-linejoin: miter; stroke-miterlimit: 4; is-custom-font: none; font-file-url: none; fill: rgb(0,0,0); fill-rule: nonzero; opacity: 1;" transform=" translate(-1.2813, 1.922)" d="m 1.5 -3.8438 v 0.85938 h 0.98438 v 0.67188 h -0.98438 v 1.2812 c 0 0.13672 0.023438 0.23047 0.078125 0.28125 c 0.0625 0.042969 0.17578 0.0625 0.34375 0.0625 h 0.48438 v 0.6875 h -0.8125 c -0.38672 0 -0.65625 -0.078125 -0.8125 -0.23438 s -0.23438 -0.42188 -0.23438 -0.79688 v -1.2812 h -0.46875 v -0.67188 h 0.46875 v -0.85938 z" stroke-linecap="round"/>
</g>
		<g transform="matrix(1.3333 0 0 1.3333 -345.3177 306.3959)">
<path style="stroke: none; stroke-width: 1; stroke-dasharray: none; stroke-linecap: butt; stroke-dashoffset: 0; stroke-linejoin: miter; stroke-miterlimit: 4; is-custom-font: none; font-file-url: none; fill: rgb(0,0,0); fill-rule: nonzero; opacity: 1;" transform=" translate(-1.961, 2.078)" d="m 3.4688 -1.8281 v 1.8281 h -0.96875 v -1.3906 c 0 -0.25781 -0.007812 -0.4375 -0.015625 -0.53125 c -0.011719 -0.10156 -0.03125 -0.17578 -0.0625 -0.21875 c -0.03125 -0.0625 -0.085937 -0.10938 -0.15625 -0.14062 c -0.0625 -0.039062 -0.13281 -0.0625 -0.20312 -0.0625 c -0.21094 0 -0.37109 0.078125 -0.48438 0.23438 c -0.10547 0.15625 -0.15625 0.37109 -0.15625 0.64062 v 1.4688 h -0.96875 v -4.1562 h 0.96875 v 1.6094 c 0.13281 -0.17578 0.28516 -0.30469 0.45312 -0.39062 c 0.16406 -0.082031 0.34375 -0.125 0.53125 -0.125 c 0.34375 0 0.60156 0.10938 0.78125 0.32812 c 0.1875 0.21094 0.28125 0.51172 0.28125 0.90625 z" stroke-linecap="round"/>
</g>
		<g transform="matrix(1.3333 0 0 1.3333 -340.297 307.177)">
<path style="stroke: none; stroke-width: 1; stroke-dasharray: none; stroke-linecap: butt; stroke-dashoffset: 0; stroke-linejoin: miter; stroke-miterlimit: 4; is-custom-font: none; font-file-url: none; fill: rgb(0,0,0); fill-rule: nonzero; opacity: 1;" transform=" translate(-1.836, 1.4922)" d="m 3.4375 -1.5 v 0.26562 h -2.2344 c 0.03125 0.23047 0.11328 0.40234 0.25 0.51562 c 0.13281 0.10547 0.32812 0.15625 0.57812 0.15625 c 0.20703 0 0.41406 -0.023438 0.625 -0.078125 c 0.20703 -0.0625 0.42188 -0.15625 0.64062 -0.28125 v 0.73438 c -0.21875 0.09375 -0.44531 0.16406 -0.67188 0.20312 c -0.23047 0.039062 -0.45312 0.0625 -0.67188 0.0625 c -0.54297 0 -0.96484 -0.13281 -1.2656 -0.40625 c -0.30469 -0.28125 -0.45312 -0.67188 -0.45312 -1.1719 c 0 -0.47656 0.14453 -0.85938 0.4375 -1.1406 c 0.30078 -0.28125 0.70703 -0.42188 1.2188 -0.42188 c 0.46875 0 0.84375 0.14062 1.125 0.42188 s 0.42188 0.66406 0.42188 1.1406 z m -0.96875 -0.32812 c 0 -0.17578 -0.058594 -0.31641 -0.17188 -0.42188 c -0.10547 -0.11328 -0.24219 -0.17188 -0.40625 -0.17188 c -0.1875 0 -0.33984 0.054687 -0.45312 0.15625 c -0.11719 0.10547 -0.1875 0.25 -0.21875 0.4375 z" stroke-linecap="round"/>
</g>
		<g transform="matrix(1.3333 0 0 1.3333 -332.2084 306.5104)">
<path style="stroke: none; stroke-width: 1; stroke-dasharray: none; stroke-linecap: butt; stroke-dashoffset: 0; stroke-linejoin: miter; stroke-miterlimit: 4; is-custom-font: none; font-file-url: none; fill: rgb(0,0,0); fill-rule: nonzero; opacity: 1;" transform=" translate(-2.289, 1.9922)" d="m 0.5 -3.9844 h 1.1562 l 1.4375 2.7344 v -2.7344 h 0.98438 v 3.9844 h -1.1562 l -1.4375 -2.7344 v 2.7344 h -0.98438 z" stroke-linecap="round"/>
</g>
		<g transform="matrix(1.3333 0 0 1.3333 -326.6563 307.1771)">
<path style="stroke: none; stroke-width: 1; stroke-dasharray: none; stroke-linecap: butt; stroke-dashoffset: 0; stroke-linejoin: miter; stroke-miterlimit: 4; is-custom-font: none; font-file-url: none; fill: rgb(0,0,0); fill-rule: nonzero; opacity: 1;" transform=" translate(-1.875, 1.4922)" d="m 1.875 -2.375 c -0.21094 0 -0.37109 0.078125 -0.48438 0.23438 c -0.10547 0.14844 -0.15625 0.35938 -0.15625 0.64062 c 0 0.29297 0.050781 0.51562 0.15625 0.67188 c 0.11328 0.14844 0.27344 0.21875 0.48438 0.21875 c 0.20703 0 0.36719 -0.070313 0.48438 -0.21875 c 0.11328 -0.15625 0.17188 -0.37891 0.17188 -0.67188 c 0 -0.28125 -0.058594 -0.49219 -0.17188 -0.64062 c -0.11719 -0.15625 -0.27734 -0.23438 -0.48438 -0.23438 z m 0 -0.6875 c 0.51953 0 0.92188 0.14062 1.2031 0.42188 c 0.28906 0.27344 0.4375 0.65234 0.4375 1.1406 c 0 0.5 -0.14844 0.89062 -0.4375 1.1719 c -0.28125 0.27344 -0.68359 0.40625 -1.2031 0.40625 c -0.51172 0 -0.91406 -0.13281 -1.2031 -0.40625 c -0.29297 -0.28125 -0.4375 -0.67188 -0.4375 -1.1719 c 0 -0.48828 0.14453 -0.86719 0.4375 -1.1406 c 0.28906 -0.28125 0.69141 -0.42188 1.2031 -0.42188 z" stroke-linecap="round"/>
</g>
		<g transform="matrix(1.3333 0 0 1.3333 -321.573 307.2291)">
<path style="stroke: none; stroke-width: 1; stroke-dasharray: none; stroke-linecap: butt; stroke-dashoffset: 0; stroke-linejoin: miter; stroke-miterlimit: 4; is-custom-font: none; font-file-url: none; fill: rgb(0,0,0); fill-rule: nonzero; opacity: 1;" transform=" translate(-1.9297, 1.4532)" d="m 0.42188 -1.1719 v -1.8125 h 0.96875 v 0.29688 v 0.60938 v 0.48438 c 0 0.24219 0.003906 0.41797 0.015625 0.53125 c 0.007812 0.10547 0.03125 0.17969 0.0625 0.21875 c 0.039062 0.0625 0.09375 0.11719 0.15625 0.15625 c 0.0625 0.03125 0.13281 0.046875 0.21875 0.046875 c 0.19531 0 0.35156 -0.078125 0.46875 -0.23438 c 0.11328 -0.15625 0.17188 -0.36719 0.17188 -0.64062 v -1.4688 h 0.95312 v 2.9844 h -0.95312 v -0.4375 c -0.14844 0.17969 -0.30469 0.30859 -0.46875 0.39062 c -0.15625 0.082031 -0.33594 0.125 -0.53125 0.125 c -0.34375 0 -0.60938 -0.10156 -0.79688 -0.3125 c -0.17969 -0.21875 -0.26562 -0.53125 -0.26562 -0.9375 z" stroke-linecap="round"/>
</g>
		<g transform="matrix(1.3333 0 0 1.3333 -316.3386 307.125)">
<path style="stroke: none; stroke-width: 1; stroke-dasharray: none; stroke-linecap: butt; stroke-dashoffset: 0; stroke-linejoin: miter; stroke-miterlimit: 4; is-custom-font: none; font-file-url: none; fill: rgb(0,0,0); fill-rule: nonzero; opacity: 1;" transform=" translate(-1.961, 1.5312)" d="m 3.4688 -1.8281 v 1.8281 h -0.96875 v -1.3906 c 0 -0.25781 -0.007812 -0.4375 -0.015625 -0.53125 c -0.011719 -0.10156 -0.03125 -0.17578 -0.0625 -0.21875 c -0.03125 -0.0625 -0.085937 -0.10938 -0.15625 -0.14062 c -0.0625 -0.039062 -0.13281 -0.0625 -0.20312 -0.0625 c -0.21094 0 -0.37109 0.078125 -0.48438 0.23438 c -0.10547 0.15625 -0.15625 0.37109 -0.15625 0.64062 v 1.4688 h -0.96875 v -2.9844 h 0.96875 v 0.4375 c 0.13281 -0.17578 0.28516 -0.30469 0.45312 -0.39062 c 0.16406 -0.082031 0.34375 -0.125 0.53125 -0.125 c 0.34375 0 0.60156 0.10938 0.78125 0.32812 c 0.1875 0.21094 0.28125 0.51172 0.28125 0.90625 z" stroke-linecap="round"/>
</g>
		<g transform="matrix(1.3333 0 0 1.3333 -308.3699 306.5103)">
<path style="stroke: none; stroke-width: 1; stroke-dasharray: none; stroke-linecap: butt; stroke-dashoffset: 0; stroke-linejoin: miter; stroke-miterlimit: 4; is-custom-font: none; font-file-url: none; fill: rgb(0,0,0); fill-rule: nonzero; opacity: 1;" transform=" translate(-2.1406, 1.9922)" d="m 0.5 -3.9844 h 1.7031 c 0.50781 0 0.89844 0.11719 1.1719 0.34375 c 0.26953 0.21875 0.40625 0.53906 0.40625 0.95312 c 0 0.41797 -0.13672 0.74219 -0.40625 0.96875 c -0.27344 0.21875 -0.66406 0.32812 -1.1719 0.32812 h -0.67188 v 1.3906 h -1.0312 z m 1.0312 0.75 v 1.1094 h 0.5625 c 0.19531 0 0.34766 -0.046875 0.45312 -0.14062 c 0.11328 -0.10156 0.17188 -0.24219 0.17188 -0.42188 c 0 -0.17578 -0.058594 -0.3125 -0.17188 -0.40625 c -0.10547 -0.09375 -0.25781 -0.14062 -0.45312 -0.14062 z" stroke-linecap="round"/>
</g>
		<g transform="matrix(1.3333 0 0 1.3333 -303.7865 307.1249)">
<path style="stroke: none; stroke-width: 1; stroke-dasharray: none; stroke-linecap: butt; stroke-dashoffset: 0; stroke-linejoin: miter; stroke-miterlimit: 4; is-custom-font: none; font-file-url: none; fill: rgb(0,0,0); fill-rule: nonzero; opacity: 1;" transform=" translate(-1.5703, 1.5313)" d="m 2.6875 -2.1719 c -0.085938 -0.039063 -0.16797 -0.070313 -0.25 -0.09375 c -0.085938 -0.019531 -0.16797 -0.03125 -0.25 -0.03125 c -0.25 0 -0.44531 0.085937 -0.57812 0.25 c -0.125 0.15625 -0.1875 0.38281 -0.1875 0.67188 v 1.375 h -0.96875 v -2.9844 h 0.96875 v 0.48438 c 0.11328 -0.19531 0.25 -0.33594 0.40625 -0.42188 c 0.16406 -0.09375 0.35938 -0.14062 0.57812 -0.14062 h 0.10938 c 0.039063 0 0.09375 0.007812 0.15625 0.015625 z" stroke-linecap="round"/>
</g>
		<g transform="matrix(1.3333 0 0 1.3333 -299.7865 307.1771)">
<path style="stroke: none; stroke-width: 1; stroke-dasharray: none; stroke-linecap: butt; stroke-dashoffset: 0; stroke-linejoin: miter; stroke-miterlimit: 4; is-custom-font: none; font-file-url: none; fill: rgb(0,0,0); fill-rule: nonzero; opacity: 1;" transform=" translate(-1.875, 1.4922)" d="m 1.875 -2.375 c -0.21094 0 -0.37109 0.078125 -0.48438 0.23438 c -0.10547 0.14844 -0.15625 0.35938 -0.15625 0.64062 c 0 0.29297 0.050781 0.51562 0.15625 0.67188 c 0.11328 0.14844 0.27344 0.21875 0.48438 0.21875 c 0.20703 0 0.36719 -0.070313 0.48438 -0.21875 c 0.11328 -0.15625 0.17188 -0.37891 0.17188 -0.67188 c 0 -0.28125 -0.058594 -0.49219 -0.17188 -0.64062 c -0.11719 -0.15625 -0.27734 -0.23438 -0.48438 -0.23438 z m 0 -0.6875 c 0.51953 0 0.92188 0.14062 1.2031 0.42188 c 0.28906 0.27344 0.4375 0.65234 0.4375 1.1406 c 0 0.5 -0.14844 0.89062 -0.4375 1.1719 c -0.28125 0.27344 -0.68359 0.40625 -1.2031 0.40625 c -0.51172 0 -0.91406 -0.13281 -1.2031 -0.40625 c -0.29297 -0.28125 -0.4375 -0.67188 -0.4375 -1.1719 c 0 -0.48828 0.14453 -0.86719 0.4375 -1.1406 c 0.28906 -0.28125 0.69141 -0.42188 1.2031 -0.42188 z" stroke-linecap="round"/>
</g>
		<g transform="matrix(1.3333 0 0 1.3333 -296.4532 307.1874)">
<path style="stroke: none; stroke-width: 1; stroke-dasharray: none; stroke-linecap: butt; stroke-dashoffset: 0; stroke-linejoin: miter; stroke-miterlimit: 4; is-custom-font: none; font-file-url: none; fill: rgb(0,0,0); fill-rule: nonzero; opacity: 1;" transform=" translate(-0.6172, 1.4844)" d="m 0.45312 -2.9844 h 0.96875 v 2.9375 c 0 0.39453 -0.10156 0.69531 -0.29688 0.90625 c -0.1875 0.21875 -0.46484 0.32812 -0.82812 0.32812 h -0.48438 v -0.64062 h 0.17188 c 0.17578 0 0.29688 -0.042969 0.35938 -0.125 c 0.070312 -0.074219 0.10938 -0.23047 0.10938 -0.46875 z m 0 -1.1719 h 0.96875 v 0.78125 h -0.96875 z" stroke-linecap="round"/>
</g>
		<g transform="matrix(1.3333 0 0 1.3333 -292.3282 307.177)">
<path style="stroke: none; stroke-width: 1; stroke-dasharray: none; stroke-linecap: butt; stroke-dashoffset: 0; stroke-linejoin: miter; stroke-miterlimit: 4; is-custom-font: none; font-file-url: none; fill: rgb(0,0,0); fill-rule: nonzero; opacity: 1;" transform=" translate(-1.836, 1.4922)" d="m 3.4375 -1.5 v 0.26562 h -2.2344 c 0.03125 0.23047 0.11328 0.40234 0.25 0.51562 c 0.13281 0.10547 0.32812 0.15625 0.57812 0.15625 c 0.20703 0 0.41406 -0.023438 0.625 -0.078125 c 0.20703 -0.0625 0.42188 -0.15625 0.64062 -0.28125 v 0.73438 c -0.21875 0.09375 -0.44531 0.16406 -0.67188 0.20312 c -0.23047 0.039062 -0.45312 0.0625 -0.67188 0.0625 c -0.54297 0 -0.96484 -0.13281 -1.2656 -0.40625 c -0.30469 -0.28125 -0.45312 -0.67188 -0.45312 -1.1719 c 0 -0.47656 0.14453 -0.85938 0.4375 -1.1406 c 0.30078 -0.28125 0.70703 -0.42188 1.2188 -0.42188 c 0.46875 0 0.84375 0.14062 1.125 0.42188 s 0.42188 0.66406 0.42188 1.1406 z m -0.96875 -0.32812 c 0 -0.17578 -0.058594 -0.31641 -0.17188 -0.42188 c -0.10547 -0.11328 -0.24219 -0.17188 -0.40625 -0.17188 c -0.1875 0 -0.33984 0.054687 -0.45312 0.15625 c -0.11719 0.10547 -0.1875 0.25 -0.21875 0.4375 z" stroke-linecap="round"/>
</g>
		<g transform="matrix(1.3333 0 0 1.3333 -287.7604 307.1771)">
<path style="stroke: none; stroke-width: 1; stroke-dasharray: none; stroke-linecap: butt; stroke-dashoffset: 0; stroke-linejoin: miter; stroke-miterlimit: 4; is-custom-font: none; font-file-url: none; fill: rgb(0,0,0); fill-rule: nonzero; opacity: 1;" transform=" translate(-1.5547, 1.4922)" d="m 2.875 -2.8906 v 0.76562 c -0.125 -0.082031 -0.25781 -0.14453 -0.39062 -0.1875 c -0.13672 -0.039062 -0.27344 -0.0625 -0.40625 -0.0625 c -0.27344 0 -0.48047 0.078125 -0.625 0.23438 c -0.14844 0.15625 -0.21875 0.37109 -0.21875 0.64062 c 0 0.28125 0.070313 0.5 0.21875 0.65625 c 0.14453 0.15625 0.35156 0.23438 0.625 0.23438 c 0.14453 0 0.28516 -0.019531 0.42188 -0.0625 c 0.13281 -0.039063 0.25781 -0.10938 0.375 -0.20312 v 0.78125 c -0.14844 0.0625 -0.29688 0.10156 -0.45312 0.125 c -0.15625 0.03125 -0.3125 0.046875 -0.46875 0.046875 c -0.54297 0 -0.96484 -0.13281 -1.2656 -0.40625 c -0.30469 -0.28125 -0.45312 -0.67188 -0.45312 -1.1719 c 0 -0.48828 0.14844 -0.86719 0.45312 -1.1406 c 0.30078 -0.28125 0.72266 -0.42188 1.2656 -0.42188 c 0.15625 0 0.3125 0.015625 0.46875 0.046875 c 0.15625 0.023437 0.30469 0.0625 0.45312 0.125 z" stroke-linecap="round"/>
</g>
		<g transform="matrix(1.3333 0 0 1.3333 -283.8021 306.604)">
<path style="stroke: none; stroke-width: 1; stroke-dasharray: none; stroke-linecap: butt; stroke-dashoffset: 0; stroke-linejoin: miter; stroke-miterlimit: 4; is-custom-font: none; font-file-url: none; fill: rgb(0,0,0); fill-rule: nonzero; opacity: 1;" transform=" translate(-1.2813, 1.922)" d="m 1.5 -3.8438 v 0.85938 h 0.98438 v 0.67188 h -0.98438 v 1.2812 c 0 0.13672 0.023438 0.23047 0.078125 0.28125 c 0.0625 0.042969 0.17578 0.0625 0.34375 0.0625 h 0.48438 v 0.6875 h -0.8125 c -0.38672 0 -0.65625 -0.078125 -0.8125 -0.23438 s -0.23438 -0.42188 -0.23438 -0.79688 v -1.2812 h -0.46875 v -0.67188 h 0.46875 v -0.85938 z" stroke-linecap="round"/>
</g>
</g>
</g>
</svg>