<svg xmlns="http://www.w3.org/2000/svg" xmlns:xlink="http://www.w3.org/1999/xlink" version="1.1" width="1000" height="1000" viewBox="0 0 1000 1000" xml:space="preserve">
<desc>Created with Fabric.js 3.5.0</desc>
<defs>
</defs>
<rect x="0" y="0" width="100%" height="100%" fill="rgba(255,255,255,0)"/>
<g transform="matrix(0.974 0 0 0.974 499.9878 614.8704)" id="242096">
<g style="" vector-effect="non-scaling-stroke">
		<g transform="matrix(1.3333 0 0 1.3333 0.3862 -263.266)">
<path style="stroke: none; stroke-width: 1; stroke-dasharray: none; stroke-linecap: butt; stroke-dashoffset: 0; stroke-linejoin: miter; stroke-miterlimit: 4; is-custom-font: none; font-file-url: none; fill: rgb(0,0,0); fill-rule: nonzero; opacity: 1;" transform=" translate(-350.2957, -152.551)" d="m 572.71 137.2 c -10.266 -6.418 -22.867 -7 -33.715 -1.5156 l -44.332 22.168 c -2.2148 -8.5156 -7.582 -15.867 -15.285 -20.648 c -10.266 -6.418 -22.867 -7 -33.715 -1.5156 l -44.332 22.168 c -2.2148 -8.5156 -7.582 -15.867 -15.285 -20.648 c -10.266 -6.418 -22.867 -7 -33.715 -1.5156 l -44.332 22.168 c -2.2148 -8.5156 -7.582 -15.867 -15.285 -20.648 c -10.266 -6.418 -22.867 -7 -33.715 -1.5156 l -44.332 22.168 c -2.2148 -8.5156 -7.582 -15.867 -15.285 -20.648 c -10.266 -6.418 -22.867 -7 -33.715 -1.5156 l -51.566 25.785 c -2.918 1.3984 -4.082 4.8984 -2.5664 7.8164 c 1.0508 1.9844 3.0352 3.2656 5.25 3.2656 c 0.93359 0 1.75 -0.23438 2.5664 -0.58203 l 51.566 -25.785 c 7.2344 -3.6172 15.516 -3.2656 22.398 1.0508 c 6.8828 4.1992 10.965 11.551 10.965 19.602 c 0 1.9844 1.0508 3.8516 2.8008 5.0156 c 1.75 1.0508 3.8516 1.168 5.7148 0.23437 l 51.566 -25.785 c 7.2344 -3.6172 15.516 -3.2656 22.398 1.0508 c 6.8828 4.1992 10.965 11.551 10.965 19.602 c 0 1.9844 1.0508 3.8516 2.8008 5.0156 c 1.75 1.0508 3.8516 1.168 5.7148 0.23438 l 51.566 -25.785 c 7.2344 -3.6172 15.516 -3.2656 22.398 1.0508 c 6.8828 4.1992 10.965 11.551 10.965 19.602 c 0 1.9844 1.0508 3.8516 2.8008 5.0156 c 1.75 1.0508 3.8516 1.168 5.7148 0.23438 l 51.566 -25.785 c 7.2344 -3.6172 15.516 -3.2656 22.398 1.0508 c 6.8828 4.1992 10.965 11.551 10.965 19.602 c 0 1.9844 1.0508 3.8516 2.8008 5.0156 c 1.75 1.0508 3.8516 1.168 5.7148 0.23438 l 51.566 -25.785 c 7.2344 -3.6172 15.516 -3.2656 22.398 1.0508 c 6.8828 4.1992 10.965 11.551 10.965 19.602 c 0 3.2656 2.5664 5.832 5.832 5.832 c 3.2656 0 5.832 -2.5664 5.832 -5.832 c -0.5625 -12.738 -6.7461 -23.82 -17.016 -30.121 z" stroke-linecap="round"/>
</g>
		<g transform="matrix(1.3333 0 0 1.3333 0.0823 -178.4304)">
<path style="stroke: none; stroke-width: 1; stroke-dasharray: none; stroke-linecap: butt; stroke-dashoffset: 0; stroke-linejoin: miter; stroke-miterlimit: 4; is-custom-font: none; font-file-url: none; fill: rgb(0,0,0); fill-rule: nonzero; opacity: 1;" transform=" translate(-350.0677, -216.1777)" d="m 572.71 201.02 c -10.266 -6.418 -22.867 -6.8828 -33.715 -1.5156 l -44.332 22.168 c -2.2148 -8.5156 -7.582 -15.867 -15.285 -20.648 c -10.266 -6.418 -22.867 -6.8828 -33.715 -1.5156 l -44.336 22.164 c -2.2148 -8.5156 -7.582 -15.867 -15.285 -20.648 c -10.266 -6.418 -22.867 -6.8828 -33.715 -1.5156 l -44.332 22.164 c -2.2148 -8.5156 -7.582 -15.867 -15.285 -20.648 c -10.266 -6.418 -22.867 -6.8828 -33.715 -1.5156 l -44.332 22.164 c -2.2148 -8.5156 -7.582 -15.867 -15.285 -20.648 c -10.266 -6.418 -22.867 -6.8828 -33.715 -1.5156 l -51.566 25.785 c -2.918 1.3984 -4.082 4.8984 -2.5664 7.8164 c 1.0508 1.9844 3.0352 3.2656 5.25 3.2656 c 0.93359 0 1.75 -0.23438 2.5664 -0.58203 l 51.566 -25.789 c 7.2344 -3.6172 15.516 -3.2656 22.398 1.0508 c 6.8828 4.1992 10.965 11.551 10.965 19.602 c 0 1.9844 1.0508 3.8516 2.8008 5.0156 c 1.75 1.0508 3.8516 1.168 5.7148 0.23438 l 51.453 -25.902 c 7.2344 -3.6172 15.516 -3.2656 22.398 1.0508 c 6.8828 4.1992 10.965 11.551 10.965 19.602 c 0 1.9844 1.0508 3.8516 2.8008 5.0156 c 1.75 1.0508 3.8516 1.168 5.7148 0.23438 l 51.453 -25.902 c 7.2344 -3.6172 15.516 -3.2656 22.398 1.0508 c 6.8828 4.1992 10.965 11.551 10.965 19.602 c 0 1.9844 1.0508 3.8516 2.8008 5.0156 c 1.75 1.0508 3.8516 1.168 5.7148 0.23438 l 51.457 -25.902 c 7.1172 -3.6172 15.516 -3.2656 22.398 1.0508 c 6.8828 4.1992 10.965 11.551 10.965 19.602 c 0 1.9844 1.0508 3.8516 2.8008 5.0156 c 1.75 1.0508 3.8516 1.168 5.7148 0.23438 l 51.453 -25.902 c 7.2344 -3.6172 15.516 -3.2656 22.398 1.0508 c 6.8828 4.1992 10.965 11.551 10.965 19.602 c 0 3.2656 2.5664 5.832 5.832 5.832 c 3.2656 0 5.832 -2.5664 5.832 -5.832 c -0.10938 -12.137 -6.293 -23.219 -16.562 -29.637 z" stroke-linecap="round"/>
</g>
		<g transform="matrix(1.3333 0 0 1.3333 0.3862 -92.9011)">
<path style="stroke: none; stroke-width: 1; stroke-dasharray: none; stroke-linecap: butt; stroke-dashoffset: 0; stroke-linejoin: miter; stroke-miterlimit: 4; is-custom-font: none; font-file-url: none; fill: rgb(0,0,0); fill-rule: nonzero; opacity: 1;" transform=" translate(-350.2957, -280.3247)" d="m 572.71 264.95 c -10.266 -6.418 -22.867 -6.8828 -33.715 -1.5156 l -44.332 22.168 c -2.2148 -8.5156 -7.582 -15.867 -15.285 -20.648 c -10.266 -6.418 -22.867 -6.8828 -33.715 -1.5156 l -44.332 22.168 c -2.2148 -8.5156 -7.582 -15.867 -15.285 -20.648 c -10.266 -6.418 -22.867 -6.8828 -33.715 -1.5156 l -44.332 22.168 c -2.2148 -8.5156 -7.582 -15.867 -15.285 -20.648 c -10.266 -6.418 -22.867 -6.8828 -33.715 -1.5156 l -44.332 22.168 c -2.2148 -8.5156 -7.582 -15.867 -15.285 -20.648 c -10.266 -6.418 -22.867 -6.8828 -33.715 -1.5156 l -51.566 25.785 c -2.918 1.3984 -4.082 4.8984 -2.5664 7.8164 c 1.0508 1.9844 3.0352 3.2656 5.25 3.2656 c 0.93359 0 1.75 -0.23438 2.5664 -0.58203 l 51.566 -25.785 c 7.1172 -3.6172 15.516 -3.2656 22.398 1.0508 c 6.8828 4.1992 10.965 11.551 10.965 19.602 c 0 1.9844 1.0508 3.8516 2.8008 5.0156 c 1.75 1.0508 3.8516 1.168 5.7148 0.23437 l 51.566 -25.785 c 7.2344 -3.6172 15.516 -3.2656 22.398 1.0508 c 6.8828 4.1992 10.965 11.551 10.965 19.602 c 0 1.9844 1.0508 3.8516 2.8008 5.0156 c 1.75 1.0508 3.8516 1.168 5.7148 0.23438 l 51.566 -25.785 c 7.2344 -3.6172 15.516 -3.2656 22.398 1.0508 c 6.8828 4.1992 10.965 11.551 10.965 19.602 c 0 1.9844 1.0508 3.8516 2.8008 5.0156 c 1.75 1.0508 3.8516 1.168 5.7148 0.23438 l 51.566 -25.785 c 7.2344 -3.6172 15.516 -3.2656 22.398 1.0508 c 6.8828 4.1992 10.965 11.551 10.965 19.602 c 0 1.9844 1.0508 3.8516 2.8008 5.0156 c 1.75 1.0508 3.8516 1.168 5.7148 0.23438 l 51.566 -25.785 c 7.2344 -3.6172 15.516 -3.2656 22.398 1.0508 c 6.8828 4.1992 10.965 11.551 10.965 19.602 c 0 3.2656 2.5664 5.832 5.832 5.832 c 3.2656 0 5.832 -2.5664 5.832 -5.832 c -0.5625 -12.738 -6.7461 -23.703 -17.016 -30.121 z" stroke-linecap="round"/>
</g>
		<g transform="matrix(1.3333 0 0 1.3333 0.3862 -7.8393)">
<path style="stroke: none; stroke-width: 1; stroke-dasharray: none; stroke-linecap: butt; stroke-dashoffset: 0; stroke-linejoin: miter; stroke-miterlimit: 4; is-custom-font: none; font-file-url: none; fill: rgb(0,0,0); fill-rule: nonzero; opacity: 1;" transform=" translate(-350.2957, -344.121)" d="m 572.71 328.77 c -10.266 -6.418 -22.867 -7 -33.715 -1.5156 l -44.332 22.168 c -2.2148 -8.5156 -7.582 -15.867 -15.285 -20.648 c -10.266 -6.418 -22.867 -7 -33.715 -1.5156 l -44.332 22.168 c -2.2148 -8.5156 -7.582 -15.867 -15.285 -20.648 c -10.266 -6.418 -22.867 -7 -33.715 -1.5156 l -44.332 22.168 c -2.2148 -8.5156 -7.582 -15.867 -15.285 -20.648 c -10.266 -6.418 -22.867 -7 -33.715 -1.5156 l -44.332 22.168 c -2.2148 -8.5156 -7.582 -15.867 -15.285 -20.648 c -10.266 -6.418 -22.867 -7 -33.715 -1.5156 l -51.566 25.785 c -2.918 1.3984 -4.082 4.8984 -2.5664 7.8164 c 1.0508 1.9844 3.0352 3.2656 5.25 3.2656 c 0.93359 0 1.75 -0.23437 2.5664 -0.58203 l 51.566 -25.785 c 7.2344 -3.6172 15.516 -3.2656 22.398 1.0508 c 6.8828 4.1992 10.965 11.551 10.965 19.602 c 0 1.9844 1.0508 3.8516 2.8008 5.0156 c 1.75 1.0508 3.8516 1.168 5.7148 0.23438 l 51.566 -25.785 c 7.2344 -3.6172 15.516 -3.2656 22.398 1.0508 c 6.8828 4.1992 10.965 11.551 10.965 19.602 c 0 1.9844 1.0508 3.8516 2.8008 5.0156 c 1.75 1.0508 3.8516 1.168 5.7148 0.23438 l 51.566 -25.785 c 7.2344 -3.6172 15.516 -3.2656 22.398 1.0508 c 6.8828 4.1992 10.965 11.551 10.965 19.602 c 0 1.9844 1.0508 3.8516 2.8008 5.0156 c 1.75 1.0508 3.8516 1.168 5.7148 0.23438 l 51.566 -25.785 c 7.2344 -3.6172 15.516 -3.2656 22.398 1.0508 c 6.8828 4.1992 10.965 11.551 10.965 19.602 c 0 1.9844 1.0508 3.8516 2.8008 5.0156 c 1.75 1.0508 3.8516 1.168 5.7148 0.23438 l 51.566 -25.785 c 7.2344 -3.6172 15.516 -3.2656 22.398 1.0508 c 6.8828 4.1992 10.965 11.551 10.965 19.602 c 0 3.2656 2.5664 5.832 5.832 5.832 c 3.2656 0 5.832 -2.5664 5.832 -5.832 c -0.5625 -12.738 -6.7461 -23.703 -17.016 -30.121 z" stroke-linecap="round"/>
</g>
		<g transform="matrix(1.3333 0 0 1.3333 0.3862 77.4323)">
<path style="stroke: none; stroke-width: 1; stroke-dasharray: none; stroke-linecap: butt; stroke-dashoffset: 0; stroke-linejoin: miter; stroke-miterlimit: 4; is-custom-font: none; font-file-url: none; fill: rgb(0,0,0); fill-rule: nonzero; opacity: 1;" transform=" translate(-350.2957, -408.0747)" d="m 572.71 392.7 c -10.266 -6.418 -22.867 -6.8828 -33.715 -1.5156 l -44.332 22.168 c -2.2148 -8.5156 -7.582 -15.867 -15.285 -20.648 c -10.266 -6.418 -22.867 -6.8828 -33.715 -1.5156 l -44.332 22.168 c -2.2148 -8.5156 -7.582 -15.867 -15.285 -20.648 c -10.266 -6.418 -22.867 -6.8828 -33.715 -1.5156 l -44.332 22.168 c -2.2148 -8.5156 -7.582 -15.867 -15.285 -20.648 c -10.266 -6.418 -22.867 -6.8828 -33.715 -1.5156 l -44.332 22.168 c -2.2148 -8.5156 -7.582 -15.867 -15.285 -20.648 c -10.266 -6.418 -22.867 -6.8828 -33.715 -1.5156 l -51.566 25.785 c -2.918 1.3984 -4.082 4.8984 -2.5664 7.8164 c 1.0508 1.9844 3.0352 3.2656 5.25 3.2656 c 0.93359 0 1.75 -0.23438 2.5664 -0.58203 l 51.566 -25.785 c 7.2344 -3.6172 15.516 -3.2656 22.398 1.0508 c 6.8828 4.1992 10.965 11.551 10.965 19.602 c 0 1.9844 1.0508 3.8516 2.8008 5.0156 c 1.75 1.0508 3.8516 1.168 5.7148 0.23437 l 51.566 -25.785 c 7.2344 -3.6172 15.516 -3.2656 22.398 1.0508 c 6.8828 4.1992 10.965 11.551 10.965 19.602 c 0 1.9844 1.0508 3.8516 2.8008 5.0156 c 1.75 1.0508 3.8516 1.168 5.7148 0.23438 l 51.566 -25.785 c 7.2344 -3.6172 15.516 -3.2656 22.398 1.0508 c 6.8828 4.1992 10.965 11.551 10.965 19.602 c 0 1.9844 1.0508 3.8516 2.8008 5.0156 c 1.75 1.0508 3.8516 1.168 5.7148 0.23438 l 51.566 -25.785 c 7.2344 -3.6172 15.516 -3.2656 22.398 1.0508 c 6.8828 4.1992 10.965 11.551 10.965 19.602 c 0 1.9844 1.0508 3.8516 2.8008 5.0156 c 1.75 1.0508 3.8516 1.168 5.7148 0.23438 l 51.566 -25.785 c 7.2344 -3.6172 15.516 -3.2656 22.398 1.0508 c 6.8828 4.1992 10.965 11.551 10.965 19.602 c 0 3.2656 2.5664 5.832 5.832 5.832 c 3.2656 0 5.832 -2.5664 5.832 -5.832 c -0.5625 -12.738 -6.7461 -23.703 -17.016 -30.121 z" stroke-linecap="round"/>
</g>
		<g transform="matrix(1.3333 0 0 1.3333 -345.3447 485.0204)">
<path style="stroke: none; stroke-width: 1; stroke-dasharray: none; stroke-linecap: butt; stroke-dashoffset: 0; stroke-linejoin: miter; stroke-miterlimit: 4; is-custom-font: none; font-file-url: none; fill: rgb(0,0,0); fill-rule: nonzero; opacity: 1;" transform=" translate(-20.992, 21.2341)" d="m 39.078 -2.3281 c -2.0117 1.043 -4.1094 1.8281 -6.2969 2.3594 s -4.4648 0.79688 -6.8281 0.79688 c -7.0859 0 -12.699 -1.9766 -16.844 -5.9375 c -4.1367 -3.957 -6.2031 -9.3281 -6.2031 -16.109 c 0 -6.7891 2.0664 -12.164 6.2031 -16.125 c 4.1445 -3.9688 9.7578 -5.9531 16.844 -5.9531 c 2.3633 0 4.6406 0.26562 6.8281 0.79688 s 4.2852 1.3242 6.2969 2.375 v 8.7969 c -2.0312 -1.3828 -4.0391 -2.3984 -6.0156 -3.0469 c -1.9688 -0.64453 -4.0469 -0.96875 -6.2344 -0.96875 c -3.9062 0 -6.9844 1.2578 -9.2344 3.7656 c -2.2422 2.5 -3.3594 5.9531 -3.3594 10.359 c 0 4.3867 1.1172 7.8359 3.3594 10.344 c 2.25 2.5 5.3281 3.75 9.2344 3.75 c 2.1875 0 4.2656 -0.32031 6.2344 -0.96875 c 1.9766 -0.64453 3.9844 -1.6602 6.0156 -3.0469 z" stroke-linecap="round"/>
</g>
		<g transform="matrix(1.3333 0 0 1.3333 -154.4536 486.0306)">
<path style="stroke: none; stroke-width: 1; stroke-dasharray: none; stroke-linecap: butt; stroke-dashoffset: 0; stroke-linejoin: miter; stroke-miterlimit: 4; is-custom-font: none; font-file-url: none; fill: rgb(0,0,0); fill-rule: nonzero; opacity: 1;" transform=" translate(-13.6562, 20.4766)" d="m 16.031 -40.953 v 9.0625 h 10.516 v 7.2812 h -10.516 v 13.531 c 0 1.4805 0.28906 2.4805 0.875 3 c 0.59375 0.52344 1.7656 0.78125 3.5156 0.78125 h 5.2344 v 7.2969 h -8.7344 c -4.0312 0 -6.8867 -0.83594 -8.5625 -2.5156 c -1.6797 -1.6875 -2.5156 -4.5391 -2.5156 -8.5625 v -13.531 h -5.0781 v -7.2812 h 5.0781 v -9.0625 z" stroke-linecap="round"/>
</g>
		<g transform="matrix(1.3333 0 0 1.3333 -56.4062 484.3433)">
<path style="stroke: none; stroke-width: 1; stroke-dasharray: none; stroke-linecap: butt; stroke-dashoffset: 0; stroke-linejoin: miter; stroke-miterlimit: 4; is-custom-font: none; font-file-url: none; fill: rgb(0,0,0); fill-rule: nonzero; opacity: 1;" transform=" translate(-19.7426, 21.7419)" d="m 26.594 -27.234 v -17.078 h 10.266 v 44.312 h -10.266 v -4.6094 c -1.3984 1.875 -2.9453 3.25 -4.6406 4.125 c -1.6875 0.875 -3.6406 1.3125 -5.8594 1.3125 c -3.9297 0 -7.1562 -1.5625 -9.6875 -4.6875 c -2.5234 -3.125 -3.7812 -7.1445 -3.7812 -12.062 c 0 -4.9141 1.2578 -8.9375 3.7812 -12.062 c 2.5312 -3.125 5.7578 -4.6875 9.6875 -4.6875 c 2.1953 0 4.1445 0.44531 5.8438 1.3281 c 1.707 0.88672 3.2578 2.2578 4.6562 4.1094 z m -6.7188 20.656 c 2.1875 0 3.8516 -0.79688 5 -2.3906 c 1.1445 -1.5938 1.7188 -3.9102 1.7188 -6.9531 c 0 -3.0391 -0.57422 -5.3594 -1.7188 -6.9531 c -1.1484 -1.5938 -2.8125 -2.3906 -5 -2.3906 c -2.168 0 -3.8242 0.79688 -4.9688 2.3906 c -1.1484 1.5938 -1.7188 3.9141 -1.7188 6.9531 c 0 3.043 0.57031 5.3594 1.7188 6.9531 c 1.1445 1.5938 2.8008 2.3906 4.9688 2.3906 z" stroke-linecap="round"/>
</g>
		<g transform="matrix(1.3333 0 0 1.3333 29.3741 484.3424)">
<path style="stroke: none; stroke-width: 1; stroke-dasharray: none; stroke-linecap: butt; stroke-dashoffset: 0; stroke-linejoin: miter; stroke-miterlimit: 4; is-custom-font: none; font-file-url: none; fill: rgb(0,0,0); fill-rule: nonzero; opacity: 1;" transform=" translate(-22.0154, 21.7426)" d="m 21.875 -6.5781 c 2.1758 0 3.8359 -0.79688 4.9844 -2.3906 c 1.1562 -1.5938 1.7344 -3.9102 1.7344 -6.9531 c 0 -3.0391 -0.57812 -5.3594 -1.7344 -6.9531 c -1.1484 -1.5938 -2.8086 -2.3906 -4.9844 -2.3906 c -2.1875 0 -3.8672 0.80469 -5.0312 2.4062 c -1.168 1.6055 -1.75 3.918 -1.75 6.9375 c 0 3.0234 0.58203 5.3359 1.75 6.9375 c 1.1641 1.6055 2.8438 2.4062 5.0312 2.4062 z m -6.7812 -20.656 c 1.4062 -1.8516 2.9609 -3.2227 4.6719 -4.1094 c 1.707 -0.88281 3.6719 -1.3281 5.8906 -1.3281 c 3.9375 0 7.1641 1.5625 9.6875 4.6875 c 2.5195 3.125 3.7812 7.1484 3.7812 12.062 c 0 4.918 -1.2617 8.9375 -3.7812 12.062 c -2.5234 3.125 -5.75 4.6875 -9.6875 4.6875 c -2.2188 0 -4.1836 -0.44531 -5.8906 -1.3281 c -1.7109 -0.88281 -3.2656 -2.2539 -4.6719 -4.1094 v 4.6094 h -10.188 v -44.312 h 10.188 z" stroke-linecap="round"/>
</g>
		<g transform="matrix(1.3333 0 0 1.3333 162.8273 484.3424)">
<path style="stroke: none; stroke-width: 1; stroke-dasharray: none; stroke-linecap: butt; stroke-dashoffset: 0; stroke-linejoin: miter; stroke-miterlimit: 4; is-custom-font: none; font-file-url: none; fill: rgb(0,0,0); fill-rule: nonzero; opacity: 1;" transform=" translate(-22.0154, 21.7426)" d="m 21.875 -6.5781 c 2.1758 0 3.8359 -0.79688 4.9844 -2.3906 c 1.1562 -1.5938 1.7344 -3.9102 1.7344 -6.9531 c 0 -3.0391 -0.57812 -5.3594 -1.7344 -6.9531 c -1.1484 -1.5938 -2.8086 -2.3906 -4.9844 -2.3906 c -2.1875 0 -3.8672 0.80469 -5.0312 2.4062 c -1.168 1.6055 -1.75 3.918 -1.75 6.9375 c 0 3.0234 0.58203 5.3359 1.75 6.9375 c 1.1641 1.6055 2.8438 2.4062 5.0312 2.4062 z m -6.7812 -20.656 c 1.4062 -1.8516 2.9609 -3.2227 4.6719 -4.1094 c 1.707 -0.88281 3.6719 -1.3281 5.8906 -1.3281 c 3.9375 0 7.1641 1.5625 9.6875 4.6875 c 2.5195 3.125 3.7812 7.1484 3.7812 12.062 c 0 4.918 -1.2617 8.9375 -3.7812 12.062 c -2.5234 3.125 -5.75 4.6875 -9.6875 4.6875 c -2.2188 0 -4.1836 -0.44531 -5.8906 -1.3281 c -1.7109 -0.88281 -3.2656 -2.2539 -4.6719 -4.1094 v 4.6094 h -10.188 v -44.312 h 10.188 z" stroke-linecap="round"/>
</g>
</g>
</g>
</svg>